<?xml version="1.0" encoding="UTF-8"?>
<svg version="1.1" xmlns="http://www.w3.org/2000/svg" width="283" height="113">
<path d="M0 0 C93.39 0 186.78 0 283 0 C283 37.29 283 74.58 283 113 C189.61 113 96.22 113 0 113 C0 75.71 0 38.42 0 0 Z " fill="#C5C9EE" transform="translate(0,0)"/>
<path d="M0 0 C10.56 0 21.12 0 32 0 C37 10 37 10 37 12 C41.95 12 46.9 12 52 12 C53.94567589 16.26552022 55.83267067 20.53230477 57.53125 24.90234375 C57.79470215 25.57773193 58.0581543 26.25312012 58.32958984 26.94897461 C58.85670148 28.30817191 59.37794222 29.66966171 59.89306641 31.03344727 C61.11355963 34.70342498 61.11355963 34.70342498 64 37 C64.15710449 36.43547119 64.31420898 35.87094238 64.47607422 35.28930664 C66.62184046 27.84315528 69.32098474 20.65763727 72.125 13.4375 C72.58003906 12.25091797 73.03507812 11.06433594 73.50390625 9.84179688 C76.86805556 1.13194444 76.86805556 1.13194444 78 0 C80.44830426 -0.08843793 82.86820599 -0.11528752 85.31640625 -0.09765625 C86.41298805 -0.09553383 86.41298805 -0.09553383 87.53172302 -0.09336853 C89.87535632 -0.08775408 92.21889539 -0.07519922 94.5625 -0.0625 C96.14778508 -0.05748686 97.73307166 -0.05292363 99.31835938 -0.04882812 C103.2122761 -0.03777997 107.10612205 -0.02050572 111 0 C111 1.65 111 3.3 111 5 C110.44570312 5.17015625 109.89140625 5.3403125 109.3203125 5.515625 C108.59585938 5.75796875 107.87140625 6.0003125 107.125 6.25 C106.40570313 6.48203125 105.68640625 6.7140625 104.9453125 6.953125 C102.50830866 8.02390056 102.50830866 8.02390056 101 12 C110.57 12 120.14 12 130 12 C130 13.65 130 15.3 130 17 C129.43410156 17.13277344 128.86820313 17.26554687 128.28515625 17.40234375 C127.55167969 17.57894531 126.81820312 17.75554688 126.0625 17.9375 C125.33160156 18.11152344 124.60070312 18.28554688 123.84765625 18.46484375 C122.00030102 18.83887569 122.00030102 18.83887569 121 20 C120.21308021 23.83195722 120.14119753 27.17758438 121 31 C124.53823373 35.72220749 128.49394871 39.4424476 134.3359375 40.7421875 C135.21507812 40.82726563 136.09421875 40.91234375 137 41 C137.2475 42.093125 137.495 43.18625 137.75 44.3125 C139.02002851 48.05908409 139.65756352 49.10595266 143 51 C143.33 49.35 143.66 47.7 144 46 C144.33 46 144.66 46 145 46 C145.37125 47.918125 145.37125 47.918125 145.75 49.875 C146.47116817 53.22370361 146.47116817 53.22370361 149.0625 55.3125 C149.701875 55.539375 150.34125 55.76625 151 56 C151.33 56.99 151.66 57.98 152 59 C150.93458984 59.18175781 150.93458984 59.18175781 149.84765625 59.3671875 C148.46900391 59.61855469 148.46900391 59.61855469 147.0625 59.875 C146.14597656 60.03742188 145.22945312 60.19984375 144.28515625 60.3671875 C143.53105469 60.57601562 142.77695313 60.78484375 142 61 C141.67 61.66 141.34 62.32 141 63 C142.32 63.33 143.64 63.66 145 64 C145 71.26 145 78.52 145 86 C143.68 86.33 142.36 86.66 141 87 C141 87.99 141 88.98 141 90 C147.27 90 153.54 90 160 90 C160 89.01 160 88.02 160 87 C160.66 87 161.32 87 162 87 C162 87.99 162 88.98 162 90 C167.94 90 173.88 90 180 90 C179.34 88.68 178.68 87.36 178 86 C179.32 86.33 180.64 86.66 182 87 C181.88655624 84.8535247 181.75893655 82.70779408 181.625 80.5625 C181.52058594 78.77005859 181.52058594 78.77005859 181.4140625 76.94140625 C181.27742187 75.97074219 181.14078125 75.00007813 181 74 C180.34 73.67 179.68 73.34 179 73 C179 72.34 179 71.68 179 71 C181.97 70.505 181.97 70.505 185 70 C185.08112454 72.58396679 185.14054748 75.16537568 185.1875 77.75 C185.21263672 78.47960937 185.23777344 79.20921875 185.26367188 79.9609375 C185.32948616 84.78731876 185.03849871 85.94866839 182 90 C187.94 90 193.88 90 200 90 C198.68 88.68 197.36 87.36 196 86 C195.45410156 83.34277344 195.45410156 83.34277344 195.390625 80.359375 C195.34228516 78.75449219 195.34228516 78.75449219 195.29296875 77.1171875 C195.27878906 76.00601563 195.26460937 74.89484375 195.25 73.75 C195.22035156 72.62335938 195.19070312 71.49671875 195.16015625 70.3359375 C195.08951088 67.55721979 195.03678723 64.77933852 195 62 C195.66 62.33 196.32 62.66 197 63 C197 64.98 197 66.96 197 69 C198.98 69 200.96 69 203 69 C203.05607422 70.32064453 203.05607422 70.32064453 203.11328125 71.66796875 C203.17902344 72.82941406 203.24476563 73.99085937 203.3125 75.1875 C203.39951172 76.91033203 203.39951172 76.91033203 203.48828125 78.66796875 C204.03182679 82.20723857 204.85426576 84.15931164 207 87 C212.10229526 89.95933125 217.12881327 91.15566417 223 90 C225.69329993 88.57675159 227.65746561 86.99364629 230 85 C231.07525194 87.65228812 232.09456151 90.28368454 233 93 C236.63 93 240.26 93 244 93 C244 92.34 244 91.68 244 91 C244.78503906 90.91363281 245.57007813 90.82726562 246.37890625 90.73828125 C253.33426621 89.80805519 257.6694236 88.60367962 263 84 C262.85691406 84.90492187 262.85691406 84.90492187 262.7109375 85.828125 C262.60007812 86.62734375 262.48921875 87.4265625 262.375 88.25 C262.25898438 89.03890625 262.14296875 89.8278125 262.0234375 90.640625 C261.99680605 93.32152459 262.63407916 94.72694089 264 97 C264.99 97 265.98 97 267 97 C268.76279117 93.47441767 268.22713881 89.44604409 268.25 85.5625 C268.270625 84.69044922 268.29125 83.81839844 268.3125 82.91992188 C268.31765625 82.08138672 268.3228125 81.24285156 268.328125 80.37890625 C268.34214355 79.22757202 268.34214355 79.22757202 268.35644531 78.05297852 C267.90876392 75.47451766 266.81341967 74.80952949 265 73 C265 71.68 265 70.36 265 69 C270.32683552 68.49268233 272.82526994 69.73281996 277 73 C281 77 281 77 281 104 C187.61 104 94.22 104 -2 104 C-2 97.4 -2 90.8 -2 84 C1.465 83.01 1.465 83.01 5 82 C12.91185098 66.53592763 10.1832352 39.66871798 10.3125 22.25 C10.32998291 21.06124268 10.34746582 19.87248535 10.36547852 18.64770508 C10.36475342 17.55224365 10.36402832 16.45678223 10.36328125 15.328125 C10.36626221 14.3680957 10.36924316 13.40806641 10.37231445 12.41894531 C10.18618401 9.96920453 10.18618401 9.96920453 8.70776367 8.24121094 C6.06245181 6.31858542 3.14085761 5.77039904 0 5 C0 3.35 0 1.7 0 0 Z " fill="#1332B4" transform="translate(2,9)"/>
<path d="M0 0 C93.39 0 186.78 0 283 0 C283 28.38 283 56.76 283 86 C280.36 84.02 277.72 82.04 275 80 C272.14901583 77.86974913 272.14901583 77.86974913 269 77.1875 C266 76 266 76 264.625 73.625 C262.53504461 70.24891822 260.33097878 69.47765788 256.7421875 67.9921875 C255 67 255 67 254 64 C252.50389164 50.9407074 251.84228676 37.64002972 251.5625 24.5 C251.52825928 23.68926025 251.49401855 22.87852051 251.45874023 22.04321289 C251.42916501 18.18385499 251.61693558 16.41526022 254.27734375 13.53125 C257.94579947 11.46807261 260.93107844 10.87068999 265.109375 10.90234375 C265.86347656 10.90556641 266.61757813 10.90878906 267.39453125 10.91210938 C268.17183594 10.92048828 268.94914062 10.92886719 269.75 10.9375 C270.54277344 10.94201172 271.33554687 10.94652344 272.15234375 10.95117188 C274.10159508 10.96291435 276.05080738 10.98084854 278 11 C278 9.02 278 7.04 278 5 C250.61 5 223.22 5 195 5 C194.34 6.32 193.68 7.64 193 9 C191.69067383 10.52050781 191.69067383 10.52050781 190.20703125 11.953125 C189.66264404 12.48591064 189.11825684 13.01869629 188.55737305 13.56762695 C187.69366089 14.40040161 187.69366089 14.40040161 186.8125 15.25 C182.55614996 19.42256133 178.46565611 23.62933836 174.60546875 28.17578125 C172.19582211 30.91374957 169.57844096 33.43050977 166.98046875 35.98828125 C165.00726717 37.99261816 163.152185 40.06048893 161.3125 42.1875 C153.95234807 50.68255064 153.95234807 50.68255064 150.375 51.875 C147.58496542 53.19659533 147.35925937 53.87439115 146.1875 56.625 C145.795625 57.73875 145.40375 58.8525 145 60 C142.53199953 58.84826645 140.95216435 57.95216435 139 56 C138.875 52.875 138.875 52.875 139 50 C138.13117188 50.08894531 137.26234375 50.17789063 136.3671875 50.26953125 C130.87444776 49.82985719 128.11648661 46.63447088 124.25390625 42.9453125 C121.21475507 38.97387404 120.93450197 36.23222272 121.22265625 31.34765625 C122.20448269 28.38244173 123.29798491 27.5060412 126 26 C129.25 25.8125 129.25 25.8125 132 26 C132 24.35 132 22.7 132 21 C122.43 21 112.86 21 103 21 C104 17 104 17 106.3125 15.25 C109 14 109 14 113 14 C113 12.35 113 10.7 113 9 C96.665 9.495 96.665 9.495 80 10 C78.246875 14.455 76.49375 18.91 74.6875 23.5 C74.14053467 24.88896484 73.59356934 26.27792969 73.0300293 27.70898438 C70.63943154 33.78919852 68.26686442 39.87250299 66 46 C64.515 45.505 64.515 45.505 63 45 C61.86186802 42.62296393 60.90301081 40.339467 60 37.875 C59.50086367 36.55956779 59.00086645 35.24446192 58.5 33.9296875 C58.25636719 33.27967773 58.01273438 32.62966797 57.76171875 31.95996094 C56.99677933 29.99171298 56.1655878 28.06427538 55.3125 26.1328125 C54 23 54 23 54 21 C49.05 21 44.1 21 39 21 C37.35 17.37 35.7 13.74 34 10 C23.44 9.67 12.88 9.34 2 9 C2 10.65 2 12.3 2 14 C3.0725 14.0825 4.145 14.165 5.25 14.25 C9.41626759 15.08325352 10.43929794 15.72892086 13 19 C13.48583984 21.5324707 13.48583984 21.5324707 13.4609375 24.42578125 C13.45731201 26.06365601 13.45731201 26.06365601 13.45361328 27.73461914 C13.4276709 28.91531982 13.40172852 30.09602051 13.375 31.3125 C13.36065918 32.53767334 13.34631836 33.76284668 13.33154297 35.02514648 C13.16913025 44.54914852 12.71354719 54.05603267 12.125 63.5625 C12.04685059 64.83843018 11.96870117 66.11436035 11.88818359 67.42895508 C10.55888383 86.68855156 10.55888383 86.68855156 7.1875 91.6875 C5 93 5 93 0 93 C0 62.31 0 31.62 0 0 Z " fill="#FCFDFD" transform="translate(0,0)"/>
<path d="M0 0 C0.33 0 0.66 0 1 0 C0.97381592 1.16571533 0.94763184 2.33143066 0.9206543 3.5324707 C0.83021038 7.85405309 0.77277234 12.17555176 0.7253418 16.49780273 C0.70018422 18.36903954 0.66605407 20.24017795 0.62280273 22.11108398 C0.56220323 24.79956303 0.53380397 27.48674436 0.51171875 30.17578125 C0.48591232 31.01337479 0.4601059 31.85096832 0.43351746 32.71394348 C0.37556593 35.349435 0.37556593 35.349435 1 39 C3.3489075 41.00486607 3.3489075 41.00486607 6 42 C7.20270964 44.40541929 7.20316663 46.10366591 7.31640625 48.7890625 C7.35830078 49.73007813 7.40019531 50.67109375 7.44335938 51.640625 C7.48267578 52.62546875 7.52199219 53.6103125 7.5625 54.625 C7.60568359 55.61757812 7.64886719 56.61015625 7.69335938 57.6328125 C7.79961069 60.08839838 7.90164964 62.54408703 8 65 C9.32 65 10.64 65 12 65 C12.33 65.66 12.66 66.32 13 67 C13.99 67 14.98 67 16 67 C16.33 59.74 16.66 52.48 17 45 C15.68 45 14.36 45 13 45 C13 43.68 13 42.36 13 41 C17.95 40.34 22.9 39.68 28 39 C28.33 39.99 28.66 40.98 29 42 C29.556875 41.505 30.11375 41.01 30.6875 40.5 C33.41508925 38.73075292 34.80848491 38.5800638 38 39 C38.66 39.66 39.32 40.32 40 41 C40.33 35.72 40.66 30.44 41 25 C46.14070296 23.9033167 50.74527355 22.93840614 56 23 C56.01458252 24.28688721 56.02916504 25.57377441 56.04418945 26.8996582 C56.10211148 31.6689855 56.17934463 36.43783762 56.26245117 41.20678711 C56.29572924 43.2718129 56.32375214 45.33693027 56.34643555 47.40209961 C56.37992855 50.36872432 56.43224145 53.33450748 56.48828125 56.30078125 C56.49467117 57.2258699 56.5010611 58.15095856 56.50764465 59.1040802 C56.52743881 59.96474594 56.54723297 60.82541168 56.56762695 61.7121582 C56.57873001 62.46938675 56.58983307 63.2266153 56.60127258 64.00679016 C57.10003716 66.50007861 58.16526448 67.30971239 60 69 C60 69.66 60 70.32 60 71 C54.06 71 48.12 71 42 71 C42 70.01 42 69.02 42 68 C42.99 68 43.98 68 45 68 C44.505 59.09 44.505 59.09 44 50 C43.01 50 42.02 50 41 50 C40.67 49.34 40.34 48.68 40 48 C39.60167969 48.51175781 39.20335937 49.02351563 38.79296875 49.55078125 C37 51 37 51 34.73828125 50.85546875 C32.4921875 50.23697917 30.24609375 49.61848958 28 49 C28.495 57.91 28.495 57.91 29 67 C30.65 67.33 32.3 67.66 34 68 C34 69.32 34 70.64 34 72 C27.4 72 20.8 72 14 72 C14 73.32 14 74.64 14 76 C11.625 76.125 11.625 76.125 9 76 C8.34 75.34 7.68 74.68 7 74 C7 73.01 7 72.02 7 71 C5.39125 71.309375 5.39125 71.309375 3.75 71.625 C0.12380904 71.9876191 -1.08291076 71.98362069 -4 70 C-5.485 70.99 -5.485 70.99 -7 72 C-11.21178243 72.46797583 -13.28599114 72.46565795 -16.875 70.125 C-19.81115211 67.18884789 -19.96298212 66.38251808 -20.375 62.125 C-20.31637703 58.88314972 -20.21454955 58.24807291 -18 55.6875 C-13.00838337 52.87971565 -8.77565059 51 -3 51 C-3.6954344 47.99615946 -3.6954344 47.99615946 -5 45 C-6.32 44.67 -7.64 44.34 -9 44 C-9.66 46.64 -10.32 49.28 -11 52 C-13.33294775 52.04241723 -15.66702567 52.04092937 -18 52 C-19 51 -19 51 -19.375 48.6875 C-19 46 -19 46 -16.875 43.875 C-14.00028877 42.00018833 -11.11023723 40.44662197 -8 39 C-8.34224609 38.22076172 -8.34224609 38.22076172 -8.69140625 37.42578125 C-8.97886719 36.72839844 -9.26632813 36.03101563 -9.5625 35.3125 C-9.85253906 34.62800781 -10.14257812 33.94351563 -10.44140625 33.23828125 C-11.83601569 27.65009096 -8.47171518 21.30121888 -6.625 16.0625 C-6.32078125 15.18142578 -6.0165625 14.30035156 -5.703125 13.39257812 C-4.07365 8.74439624 -2.33122567 4.34065638 0 0 Z " fill="#F4F5FB" transform="translate(81,28)"/>
<path d="M0 0 C3.27580028 1.63790014 3.86530313 5.17373993 5.125 8.4375 C5.40214844 9.13166016 5.67929687 9.82582031 5.96484375 10.54101562 C8 15.71913485 8 15.71913485 8 18 C10.64 18 13.28 18 16 18 C16.66 16.35 17.32 14.7 18 13 C21.14292072 15.09528048 21.50856669 15.58783233 22.6875 18.9375 C22.93886719 19.62714844 23.19023438 20.31679687 23.44921875 21.02734375 C24 23 24 23 24 26 C24.66 26 25.32 26 26 26 C26 27.32 26 28.64 26 30 C28.97 30 31.94 30 35 30 C35.144375 28.906875 35.28875 27.81375 35.4375 26.6875 C36 23 36 23 37 20 C37.66 20 38.32 20 39 20 C39.28875 21.093125 39.5775 22.18625 39.875 23.3125 C40.81893204 27.04013845 40.81893204 27.04013845 43 30 C45.25579898 30.47623667 45.25579898 30.47623667 47.90869141 30.43237305 C49.44005234 30.46206429 49.44005234 30.46206429 51.00234985 30.49235535 C52.10759003 30.49874527 53.2128302 30.50513519 54.3515625 30.51171875 C55.4807309 30.52966995 56.60989929 30.54762115 57.77328491 30.56611633 C61.39048493 30.62042888 65.00755146 30.65418266 68.625 30.6875 C71.07293533 30.72065452 73.520853 30.7551424 75.96875 30.79101562 C81.97904695 30.87616726 87.98936075 30.94442808 94 31 C94 29.35 94 27.7 94 26 C92.02 26 90.04 26 88 26 C87.67 24.35 87.34 22.7 87 21 C92.61 21 98.22 21 104 21 C104 22.98 104 24.96 104 27 C103.01 27.99 102.02 28.98 101 30 C106.94 30 112.88 30 119 30 C118.01 29.01 117.02 28.02 116 27 C115.8125 23.8125 115.8125 23.8125 116 21 C118.64 21 121.28 21 124 21 C124 22.98 124 24.96 124 27 C123.01 27.33 122.02 27.66 121 28 C121 28.66 121 29.32 121 30 C126.94 30 132.88 30 139 30 C139 29.34 139 28.68 139 28 C138.01 27.67 137.02 27.34 136 27 C136 25.02 136 23.04 136 21 C138.97 21 141.94 21 145 21 C145 22.98 145 24.96 145 27 C144.01 27.33 143.02 27.66 142 28 C142 28.66 142 29.32 142 30 C147.61 30 153.22 30 159 30 C158.01 28.515 158.01 28.515 157 27 C156.875 23.8125 156.875 23.8125 157 21 C159.31 21 161.62 21 164 21 C164 22.98 164 24.96 164 27 C163.34 27 162.68 27 162 27 C162 27.99 162 28.98 162 30 C167.61 30 173.22 30 179 30 C179 29.01 179 28.02 179 27 C178.01 27 177.02 27 176 27 C176 25.35 176 23.7 176 22 C179.125 21.5625 179.125 21.5625 183 22 C184.8675776 23.64414281 186.26341158 25.37092804 187.73828125 27.37109375 C188.92106765 29.14105662 188.92106765 29.14105662 191 30 C196.0111158 30.54978069 199.89696493 30.56154513 204.4375 28.25 C206.67832369 26.28244749 208.39295568 24.49984673 210 22 C213.82163907 23.55696407 216.18618495 26.03408684 219 29 C220.84473215 30.84473215 223.71210047 30.21643526 226.1875 30.25 C233.05051755 30.17681506 233.05051755 30.17681506 239 27 C241.29582863 23.93282876 241.29582863 23.93282876 243 21 C243.33 21 243.66 21 244 21 C244 25.29 244 29.58 244 34 C150.61 34 57.22 34 -39 34 C-39 29.38 -39 24.76 -39 20 C-30.09 20 -21.18 20 -12 20 C-14 24 -14 24 -16 26 C-18.625 26.125 -18.625 26.125 -21 26 C-21 27.65 -21 29.3 -21 31 C-10.11 31 0.78 31 12 31 C12 29.35 12 27.7 12 26 C11.07767578 25.96132812 11.07767578 25.96132812 10.13671875 25.921875 C9.32847656 25.86515625 8.52023438 25.8084375 7.6875 25.75 C6.48673828 25.68039063 6.48673828 25.68039063 5.26171875 25.609375 C2.23966269 24.79514228 1.60362196 23.64768222 0 21 C-0.34057617 18.61816406 -0.34057617 18.61816406 -0.29296875 16.015625 C-0.2784668 14.61376953 -0.2784668 14.61376953 -0.26367188 13.18359375 C-0.23853516 12.21550781 -0.21339844 11.24742188 -0.1875 10.25 C-0.16719727 8.77466797 -0.16719727 8.77466797 -0.14648438 7.26953125 C-0.11118726 4.84579585 -0.06188054 2.42317855 0 0 Z " fill="#EDEEEF" transform="translate(39,79)"/>
<path d="M0 0 C0.33 0 0.66 0 1 0 C0.95875 1.299375 0.9175 2.59875 0.875 3.9375 C1.50047284 9.82814717 4.97746036 12.50533713 9.26171875 16.25 C12.25797178 18.16486641 14.48817813 18.67092738 18 19 C18.2475 20.093125 18.495 21.18625 18.75 22.3125 C20.02002851 26.05908409 20.65756352 27.10595266 24 29 C24.33 27.35 24.66 25.7 25 24 C25.33 24 25.66 24 26 24 C26.2475 25.27875 26.495 26.5575 26.75 27.875 C27.47116817 31.22370361 27.47116817 31.22370361 30.0625 33.3125 C30.701875 33.539375 31.34125 33.76625 32 34 C32.33 34.99 32.66 35.98 33 37 C32.28972656 37.12117188 31.57945312 37.24234375 30.84765625 37.3671875 C29.46900391 37.61855469 29.46900391 37.61855469 28.0625 37.875 C26.68771484 38.11863281 26.68771484 38.11863281 25.28515625 38.3671875 C24.53105469 38.57601562 23.77695313 38.78484375 23 39 C22.67 39.66 22.34 40.32 22 41 C23.32 41.33 24.64 41.66 26 42 C26 49.26 26 56.52 26 64 C24.02 64.495 24.02 64.495 22 65 C22 65.99 22 66.98 22 68 C28.27 68 34.54 68 41 68 C41 67.01 41 66.02 41 65 C41.66 65 42.32 65 43 65 C43 65.99 43 66.98 43 68 C48.94 68 54.88 68 61 68 C60.34 66.68 59.68 65.36 59 64 C60.32 64.33 61.64 64.66 63 65 C62.88655624 62.8535247 62.75893655 60.70779408 62.625 58.5625 C62.52058594 56.77005859 62.52058594 56.77005859 62.4140625 54.94140625 C62.20910156 53.48541016 62.20910156 53.48541016 62 52 C61.01 51.505 61.01 51.505 60 51 C60 50.34 60 49.68 60 49 C62.97 48.505 62.97 48.505 66 48 C66.08112454 50.58396679 66.14054748 53.16537568 66.1875 55.75 C66.21263672 56.47960937 66.23777344 57.20921875 66.26367188 57.9609375 C66.32948616 62.78731876 66.03849871 63.94866839 63 68 C68.94 68 74.88 68 81 68 C79.68 66.68 78.36 65.36 77 64 C76.45410156 61.34277344 76.45410156 61.34277344 76.390625 58.359375 C76.35839844 57.28945312 76.32617188 56.21953125 76.29296875 55.1171875 C76.27878906 54.00601563 76.26460938 52.89484375 76.25 51.75 C76.22035156 50.62335938 76.19070312 49.49671875 76.16015625 48.3359375 C76.08951088 45.55721979 76.03678723 42.77933852 76 40 C76.66 40.33 77.32 40.66 78 41 C78 42.98 78 44.96 78 47 C79.98 47 81.96 47 84 47 C84.05607422 48.32064453 84.05607422 48.32064453 84.11328125 49.66796875 C84.17902344 50.82941406 84.24476563 51.99085937 84.3125 53.1875 C84.37050781 54.33605469 84.42851562 55.48460937 84.48828125 56.66796875 C85.03182679 60.20723857 85.85426576 62.15931164 88 65 C93.10229526 67.95933125 98.12881327 69.15566417 104 68 C106.69329993 66.57675159 108.65746561 64.99364629 111 63 C112.07525194 65.65228812 113.09456151 68.28368454 114 71 C117.63 71 121.26 71 125 71 C125 70.34 125 69.68 125 69 C126.17755859 68.87044922 126.17755859 68.87044922 127.37890625 68.73828125 C134.33426621 67.80805519 138.6694236 66.60367962 144 62 C143.90460938 62.60328125 143.80921875 63.2065625 143.7109375 63.828125 C143.60007812 64.62734375 143.48921875 65.4265625 143.375 66.25 C143.25898438 67.03890625 143.14296875 67.8278125 143.0234375 68.640625 C142.99680605 71.32152459 143.63407916 72.72694089 145 75 C145.99 75 146.98 75 148 75 C149.76279117 71.47441767 149.22713881 67.44604409 149.25 63.5625 C149.270625 62.69044922 149.29125 61.81839844 149.3125 60.91992188 C149.31765625 60.08138672 149.3228125 59.24285156 149.328125 58.37890625 C149.34214355 57.22757202 149.34214355 57.22757202 149.35644531 56.05297852 C148.90876392 53.47451766 147.81341967 52.80952949 146 51 C146 49.68 146 48.36 146 47 C152.35911608 46.3943699 155.34625406 48.87797 160.14453125 52.71484375 C163.32202474 56.62817784 162.59531979 60.72378845 162.44921875 65.5703125 C161.6543533 71.6389374 159.18613738 74.30574353 154.5 77.9375 C149.01119924 79.60374309 143.67700723 79.79936999 138 79 C135 76.75 135 76.75 133 74 C131.35135455 72.64444707 129.68996005 71.30368347 128 70 C127.773125 70.5775 127.54625 71.155 127.3125 71.75 C125.33370463 75.14222063 122.49013058 77.25493471 119 79 C114.69787555 79.62133059 110.66604513 79.97036679 106.8203125 77.73046875 C104.39468235 75.66214097 102.4332303 73.8664606 101 71 C98.67843403 70.59270772 96.3431213 70.25561323 94 70 C94 71.65 94 73.3 94 75 C94.99 75 95.98 75 97 75 C97 75.99 97 76.98 97 78 C91.39 78 85.78 78 80 78 C80 77.01 80 76.02 80 75 C80.66 75 81.32 75 82 75 C82 73.02 82 71.04 82 69 C79.69 69 77.38 69 75 69 C75.99 73.455 75.99 73.455 77 78 C71.39 78 65.78 78 60 78 C60 77.34 60 76.68 60 76 C60.66 75.67 61.32 75.34 62 75 C62.65772428 71.97065509 62.65772428 71.97065509 63 69 C60.03 69 57.06 69 54 69 C54.34227572 71.97065509 54.34227572 71.97065509 55 75 C55.99 75.495 55.99 75.495 57 76 C57 76.66 57 77.32 57 78 C51.06 78 45.12 78 39 78 C39 77.34 39 76.68 39 76 C39.66 75.67 40.32 75.34 41 75 C41.65772428 71.97065509 41.65772428 71.97065509 42 69 C39.36 69 36.72 69 34 69 C34 70.98 34 72.96 34 75 C34.99 75.33 35.98 75.66 37 76 C37 76.66 37 77.32 37 78 C31.06 78 25.12 78 19 78 C19.495 76.515 19.495 76.515 20 75 C20.66 75 21.32 75 22 75 C22 73.02 22 71.04 22 69 C16.39 69 10.78 69 5 69 C4.67 69.99 4.34 70.98 4 72 C4 71.01 4 70.02 4 69 C3.01 69 2.02 69 1 69 C1.33 67.68 1.66 66.36 2 65 C2 65.99 2 66.98 2 68 C7.94 68 13.88 68 20 68 C20 67.34 20 66.68 20 66 C18.515 65.505 18.515 65.505 17 65 C15.84589746 62.69179492 15.8789703 61.39215724 15.88647461 58.82568359 C15.88655014 57.96494232 15.88662567 57.10420105 15.88670349 56.21737671 C15.89186478 55.28712677 15.89702606 54.35687683 15.90234375 53.3984375 C15.9037587 52.44683746 15.90517365 51.49523743 15.90663147 50.51480103 C15.91223988 47.46816903 15.92479381 44.42160987 15.9375 41.375 C15.94251392 39.31250106 15.94707701 37.25000097 15.95117188 35.1875 C15.96221204 30.12497183 15.97948233 25.06249827 16 20 C11.38 20.66 6.76 21.32 2 22 C0.18752079 18.37504158 -0.24864042 17.4048294 -0.1953125 13.671875 C-0.18886719 12.87265625 -0.18242188 12.0734375 -0.17578125 11.25 C-0.15902344 10.425 -0.14226562 9.6 -0.125 8.75 C-0.11597656 7.90953125 -0.10695313 7.0690625 -0.09765625 6.203125 C-0.07415817 4.13529396 -0.03828908 2.06761005 0 0 Z " fill="#898DBF" transform="translate(121,31)"/>
<path d="M0 0 C0.66 0 1.32 0 2 0 C2 17.82 2 35.64 2 54 C1.34 54 0.68 54 0 54 C-0.33 52.35 -0.66 50.7 -1 49 C-0.91939409 52.62592996 -0.80653183 56.25014402 -0.6875 59.875 C-0.65366211 61.42380859 -0.65366211 61.42380859 -0.61914062 63.00390625 C-0.58369141 63.99003906 -0.54824219 64.97617188 -0.51171875 65.9921875 C-0.48553467 66.90339355 -0.45935059 67.81459961 -0.43237305 68.75341797 C-0.21834839 69.86547607 -0.21834839 69.86547607 0 71 C0.99 71.66 1.98 72.32 3 73 C3 73.66 3 74.32 3 75 C-2.94 75 -8.88 75 -15 75 C-14.34 73.68 -13.68 72.36 -13 71 C-12.86041143 68.37573495 -12.81068631 65.86707253 -12.875 63.25 C-12.88402344 62.55261719 -12.89304688 61.85523438 -12.90234375 61.13671875 C-12.92580112 59.42433042 -12.96166896 57.71211996 -13 56 C-14.65 56 -16.3 56 -18 56 C-18 56.66 -18 57.32 -18 58 C-16.515 58.495 -16.515 58.495 -15 59 C-15 63.29 -15 67.58 -15 72 C-15.99 72 -16.98 72 -18 72 C-17.67 72.99 -17.34 73.98 -17 75 C-22.94 75 -28.88 75 -35 75 C-35 74.01 -35 73.02 -35 72 C-33.515 71.505 -33.515 71.505 -32 71 C-32 63.74 -32 56.48 -32 49 C-32.99 48.67 -33.98 48.34 -35 48 C-35 47.34 -35 46.68 -35 46 C-31.37 45.34 -27.74 44.68 -24 44 C-24.495 42.515 -24.495 42.515 -25 41 C-30.05009595 40.06213918 -30.05009595 40.06213918 -35 41 C-35 43.64 -35 46.28 -35 49 C-34.01 49.33 -33.02 49.66 -32 50 C-32 51.65 -32 53.3 -32 55 C-34.31 55 -36.62 55 -39 55 C-39.71621668 49.35868836 -40.34098249 44.1863184 -37.27734375 39.19140625 C-34.96061829 36.64420038 -32.55250082 34.30997348 -30 32 C-28.61868987 30.63133923 -27.2432764 29.25669088 -25.875 27.875 C-25.22402344 27.23433594 -24.57304687 26.59367187 -23.90234375 25.93359375 C-21.38093689 23.37076748 -19.05763265 20.6588788 -16.71484375 17.93359375 C-14.50684744 15.4439396 -12.14686849 13.13516047 -9.7734375 10.8046875 C-7.1886316 8.17433436 -4.78830219 5.39538237 -2.3828125 2.6015625 C-1.61429517 1.71147181 -0.83152881 0.83152881 0 0 Z " fill="#FAFBFD" transform="translate(199,24)"/>
<path d="M0 0 C26.4 0 52.8 0 80 0 C80.495 0.99 80.495 0.99 81 2 C94.365 2.495 94.365 2.495 108 3 C108 5.31 108 7.62 108 10 C106.35 10 104.7 10 103 10 C104.32 9.67 105.64 9.34 107 9 C107 7.35 107 5.7 107 4 C90.665 4.495 90.665 4.495 74 5 C72.246875 9.455 70.49375 13.91 68.6875 18.5 C68.14053467 19.88896484 67.59356934 21.27792969 67.0300293 22.70898438 C64.63943154 28.78919852 62.26686442 34.87250299 60 41 C59.01 40.67 58.02 40.34 57 40 C55.86186802 37.62296393 54.90301081 35.339467 54 32.875 C53.50086367 31.55956779 53.00086645 30.24446192 52.5 28.9296875 C52.25636719 28.27967773 52.01273438 27.62966797 51.76171875 26.95996094 C50.99677933 24.99171298 50.1655878 23.06427538 49.3125 21.1328125 C48 18 48 18 48 16 C43.05 16 38.1 16 33 16 C31.35 12.37 29.7 8.74 28 5 C14.14 4.505 14.14 4.505 0 4 C0 2.68 0 1.36 0 0 Z " fill="#C5C9ED" transform="translate(6,5)"/>
<path d="M0 0 C0.33 0 0.66 0 1 0 C0.97381592 1.16571533 0.94763184 2.33143066 0.9206543 3.5324707 C0.83021038 7.85405309 0.77277234 12.17555176 0.7253418 16.49780273 C0.70018422 18.36903954 0.66605407 20.24017795 0.62280273 22.11108398 C0.56220323 24.79956303 0.53380397 27.48674436 0.51171875 30.17578125 C0.48591232 31.01337479 0.4601059 31.85096832 0.43351746 32.71394348 C0.37556593 35.349435 0.37556593 35.349435 1 39 C3.3489075 41.00486607 3.3489075 41.00486607 6 42 C7.20270964 44.40541929 7.20316663 46.10366591 7.31640625 48.7890625 C7.35830078 49.73007813 7.40019531 50.67109375 7.44335938 51.640625 C7.48267578 52.62546875 7.52199219 53.6103125 7.5625 54.625 C7.60568359 55.61757812 7.64886719 56.61015625 7.69335938 57.6328125 C7.79961069 60.08839838 7.90164964 62.54408703 8 65 C9.32 65 10.64 65 12 65 C12.33 66.98 12.66 68.96 13 71 C19.6 71 26.2 71 33 71 C33.495 69.515 33.495 69.515 34 68 C34 69.32 34 70.64 34 72 C27.4 72 20.8 72 14 72 C14 73.32 14 74.64 14 76 C11.625 76.125 11.625 76.125 9 76 C8.34 75.34 7.68 74.68 7 74 C7 73.01 7 72.02 7 71 C5.39125 71.309375 5.39125 71.309375 3.75 71.625 C0.12380904 71.9876191 -1.08291076 71.98362069 -4 70 C-5.485 70.99 -5.485 70.99 -7 72 C-11.21178243 72.46797583 -13.28599114 72.46565795 -16.875 70.125 C-19.81115211 67.18884789 -19.96298212 66.38251808 -20.375 62.125 C-20.31637703 58.88314972 -20.21454955 58.24807291 -18 55.6875 C-13.00838337 52.87971565 -8.77565059 51 -3 51 C-3.6954344 47.99615946 -3.6954344 47.99615946 -5 45 C-6.32 44.67 -7.64 44.34 -9 44 C-9.66 46.64 -10.32 49.28 -11 52 C-13.33294775 52.04241723 -15.66702567 52.04092937 -18 52 C-19 51 -19 51 -19.375 48.6875 C-19 46 -19 46 -16.875 43.875 C-14.00028877 42.00018833 -11.11023723 40.44662197 -8 39 C-8.34224609 38.22076172 -8.34224609 38.22076172 -8.69140625 37.42578125 C-8.97886719 36.72839844 -9.26632813 36.03101563 -9.5625 35.3125 C-9.85253906 34.62800781 -10.14257812 33.94351563 -10.44140625 33.23828125 C-11.83601569 27.65009096 -8.47171518 21.30121888 -6.625 16.0625 C-6.32078125 15.18142578 -6.0165625 14.30035156 -5.703125 13.39257812 C-4.07365 8.74439624 -2.33122567 4.34065638 0 0 Z " fill="#F5F6FB" transform="translate(81,28)"/>
<path d="M0 0 C4.875 0.875 4.875 0.875 6 2 C6.04063832 3.66617115 6.042721 5.33388095 6 7 C4.77023438 7.38091797 4.77023438 7.38091797 3.515625 7.76953125 C2.43796875 8.11371094 1.3603125 8.45789063 0.25 8.8125 C-0.81734375 9.14894531 -1.8846875 9.48539063 -2.984375 9.83203125 C-5.84626045 10.94045579 -7.81012853 11.86214448 -10 14 C-10.7170731 18.93983691 -10.77880489 20.86719289 -7.9375 25 C-4.26383061 27.50122172 -2.36916255 27.54614532 2 27 C4.83378132 26.1025173 4.83378132 26.1025173 7 25 C7.66 25.66 8.32 26.32 9 27 C12.58343976 27.16677282 12.58343976 27.16677282 16 27 C16.226875 27.639375 16.45375 28.27875 16.6875 28.9375 C17.85250896 31.27193661 17.85250896 31.27193661 20.625 31.75 C21.40875 31.8325 22.1925 31.915 23 32 C23 30.68 23 29.36 23 28 C29.6 28 36.2 28 43 28 C43 26.68 43 25.36 43 24 C42.195625 24.020625 41.39125 24.04125 40.5625 24.0625 C38 24 38 24 37 23 C36.91368126 21.65732587 36.89293527 20.31025678 36.90234375 18.96484375 C36.90556641 18.15595703 36.90878906 17.34707031 36.91210938 16.51367188 C36.92467773 15.2384668 36.92467773 15.2384668 36.9375 13.9375 C36.94201172 13.08349609 36.94652344 12.22949219 36.95117188 11.34960938 C36.96299627 9.23304337 36.98093231 7.11651315 37 5 C37.65009033 5.11770752 38.30018066 5.23541504 38.9699707 5.35668945 C41.3608484 5.76912162 43.57177528 6.04597327 46 6 C48.5905727 4.24905348 48.5905727 4.24905348 50 2 C50 3.32 50 4.64 50 6 C50.99 6 51.98 6 53 6 C54.2039337 9.75399798 54.09877617 13.33217412 54.0625 17.25 C54.05347656 18.51328125 54.04445313 19.7765625 54.03515625 21.078125 C54.02355469 22.04234375 54.01195313 23.0065625 54 24 C52.68 24 51.36 24 50 24 C50 25.32 50 26.64 50 28 C50.99 28 51.98 28 53 28 C53.20625 28.639375 53.4125 29.27875 53.625 29.9375 C54.89538209 32.34925077 54.89538209 32.34925077 58.125 32.75 C59.07375 32.8325 60.0225 32.915 61 33 C61 34.65 61 36.3 61 38 C53.81033399 38.15204003 46.6210818 38.25716901 39.43017578 38.32958984 C36.98372913 38.35977686 34.53739083 38.40073133 32.09130859 38.45263672 C28.57622574 38.52536257 25.06257243 38.55943822 21.546875 38.5859375 C19.9044986 38.63238907 19.9044986 38.63238907 18.22894287 38.67977905 C15.36171108 38.68105202 12.79750559 38.62874081 10 38 C7.10423338 34.94277689 6.11260308 33.29493541 5.75 29.125 C5.8325 28.42375 5.915 27.7225 6 27 C5.34 27 4.68 27 4 27 C3.34 30.3 2.68 33.6 2 37 C-0.97 37 -3.94 37 -7 37 C-7 35.68 -7 34.36 -7 33 C-7.66 33 -8.32 33 -9 33 C-10.65 29.04 -12.3 25.08 -14 21 C-14.66 21 -15.32 21 -16 21 C-14.45730076 16.27934033 -12.92205381 11.58335908 -11 7 C-8.03 7.33 -5.06 7.66 -2 8 C-1.34 5.36 -0.68 2.72 0 0 Z " fill="#15171F" transform="translate(72,72)"/>
<path d="M0 0 C1.02304948 1.65261839 2.02616054 3.31791365 3 5 C5.59122743 5.88658466 5.59122743 5.88658466 8 6 C8 6.33 8 6.66 8 7 C6.35 7 4.7 7 3 7 C3 8.32 3 9.64 3 11 C3.99 11.33 4.98 11.66 6 12 C7.76078179 15.52156358 7.184646 19.55891951 7.1875 23.4375 C7.19974609 24.30955078 7.21199219 25.18160156 7.22460938 26.08007812 C7.22654297 26.91861328 7.22847656 27.75714844 7.23046875 28.62109375 C7.23457764 29.3886499 7.23868652 30.15620605 7.24291992 30.94702148 C7 33 7 33 5 36 C3.125 35.75 3.125 35.75 1 35 C-1.35535899 31.82026536 -1.17494335 28.84875379 -1 25 C-2.26150432 24.89859474 -2.26150432 24.89859474 -3.875 26.4375 C-8.20129108 29.61859638 -12.83960505 29.51177471 -18 29 C-20.52125603 28.21009829 -22.63416261 27.20808718 -25 26 C-25 25.34 -25 24.68 -25 24 C-25.66 24 -26.32 24 -27 24 C-30.60081485 18.14867587 -30.90361021 12.88552391 -29.375 6.3125 C-27.1796581 2.62033408 -24.2986962 -1.19039631 -20.13671875 -2.65625 C-13.00582377 -3.80345066 -6.26276112 -3.78375151 0 0 Z " fill="#F7F8FC" transform="translate(264,71)"/>
<path d="M0 0 C9.57 0 19.14 0 29 0 C29 1.65 29 3.3 29 5 C26.98177083 5.42317708 24.96354167 5.84635417 22.9453125 6.26953125 C20.62953451 6.92308838 20.62953451 6.92308838 19 10 C18.7102335 11.96258861 18.7102335 11.96258861 18.76953125 14.08984375 C18.77243164 15.26643555 18.77243164 15.26643555 18.77539062 16.46679688 C18.78763672 17.28212891 18.79988281 18.09746094 18.8125 18.9375 C18.81314453 19.74896484 18.81378906 20.56042969 18.81445312 21.39648438 C18.80367789 25.73616007 18.80367789 25.73616007 19.51806641 29.9934082 C20.05449479 32.22689599 20.02602792 34.03956562 19.87890625 36.328125 C19.83056641 37.12734375 19.78222656 37.9265625 19.73242188 38.75 C19.67634766 39.575 19.62027344 40.4 19.5625 41.25 C19.51029297 42.09046875 19.45808594 42.9309375 19.40429688 43.796875 C19.27504311 45.8649352 19.13825726 47.9325222 19 50 C18.5771875 49.50242188 18.154375 49.00484375 17.71875 48.4921875 C15.93834275 46.60379268 15.93834275 46.60379268 12.5 47.125 C9.18834025 47.95291494 7.97471216 48.32833061 6 51 C6 49.35 6 47.7 6 46 C4.35 46 2.7 46 1 46 C0.15361074 30.64408059 -0.09047484 15.38072318 0 0 Z " fill="#303240" transform="translate(103,21)"/>
<path d="M0 0 C6.35911608 -0.6056301 9.34625406 1.87797 14.14453125 5.71484375 C17.32202474 9.62817784 16.59531979 13.72378845 16.44921875 18.5703125 C15.6543533 24.6389374 13.18613738 27.30574353 8.5 30.9375 C3.01119924 32.60374309 -2.32299277 32.79936999 -8 32 C-11 29.75 -11 29.75 -13 27 C-14.64864545 25.64444707 -16.31003995 24.30368347 -18 23 C-18.226875 23.5775 -18.45375 24.155 -18.6875 24.75 C-20.66629537 28.14222063 -23.50986942 30.25493471 -27 32 C-31.30212445 32.62133059 -35.33395487 32.97036679 -39.1796875 30.73046875 C-41.60531765 28.66214097 -43.5667697 26.8664606 -45 24 C-47.32156597 23.59270772 -49.6568787 23.25561323 -52 23 C-52 24.65 -52 26.3 -52 28 C-51.01 28 -50.02 28 -49 28 C-49 28.99 -49 29.98 -49 31 C-54.61 31 -60.22 31 -66 31 C-66 30.34 -66 29.68 -66 29 C-65.01 29 -64.02 29 -63 29 C-63 23.06 -63 17.12 -63 11 C-62.01 12.32 -61.02 13.64 -60 15 C-56.29670577 19.08311928 -54.23860651 20.58095664 -48.88671875 21.2734375 C-42.61065137 21.56327365 -39.76479269 20.05514271 -35 16 C-33.92474806 18.65228812 -32.90543849 21.28368454 -32 24 C-28.37 24 -24.74 24 -21 24 C-21 23.34 -21 22.68 -21 22 C-19.82244141 21.87044922 -19.82244141 21.87044922 -18.62109375 21.73828125 C-11.66573379 20.80805519 -7.3305764 19.60367962 -2 15 C-2.14308594 15.90492187 -2.14308594 15.90492187 -2.2890625 16.828125 C-2.39992188 17.62734375 -2.51078125 18.4265625 -2.625 19.25 C-2.74101562 20.03890625 -2.85703125 20.8278125 -2.9765625 21.640625 C-3.00319395 24.32152459 -2.36592084 25.72694089 -1 28 C-0.01 28 0.98 28 2 28 C3.76279117 24.47441767 3.22713881 20.44604409 3.25 16.5625 C3.270625 15.69044922 3.29125 14.81839844 3.3125 13.91992188 C3.31765625 13.08138672 3.3228125 12.24285156 3.328125 11.37890625 C3.3374707 10.6113501 3.34681641 9.84379395 3.35644531 9.05297852 C2.90876392 6.47451766 1.81341967 5.80952949 0 4 C0 2.68 0 1.36 0 0 Z " fill="#494B54" transform="translate(267,78)"/>
<path d="M0 0 C8.39012078 12.58518117 9.96772721 25.2565648 8.8840332 40.01733398 C8.85147754 42.32448371 8.85147754 42.32448371 11 45 C13.18505129 45.79437923 13.18505129 45.79437923 15.625 46.1875 C16.85089844 46.42533203 16.85089844 46.42533203 18.1015625 46.66796875 C18.72804688 46.77753906 19.35453125 46.88710937 20 47 C20 48.65 20 50.3 20 52 C9.11 52 -1.78 52 -13 52 C-13 50.35 -13 48.7 -13 47 C-12.071875 46.7525 -11.14375 46.505 -10.1875 46.25 C-6.92548863 45.30792366 -6.92548863 45.30792366 -5.5 42.875 C-4.7575 41.946875 -4.7575 41.946875 -4 41 C-0.8125 40.75 -0.8125 40.75 2 41 C2 39.02 2 37.04 2 35 C0.68 35 -0.64 35 -2 35 C-1.34 23.45 -0.68 11.9 0 0 Z " fill="#454649" transform="translate(31,58)"/>
<path d="M0 0 C0 0.99 0 1.98 0 3 C0.66 3.33 1.32 3.66 2 4 C1.67 4.99 1.34 5.98 1 7 C1.969375 7.12375 2.93875 7.2475 3.9375 7.375 C5.4534375 7.684375 5.4534375 7.684375 7 8 C8.17426264 10.34852528 8.11508173 11.73774065 8.09765625 14.3515625 C8.09443359 15.20234375 8.09121094 16.053125 8.08789062 16.9296875 C8.07951172 17.81914063 8.07113281 18.70859375 8.0625 19.625 C8.05798828 20.5221875 8.05347656 21.419375 8.04882812 22.34375 C8.03702591 24.56256648 8.02056155 26.78125018 8 29 C7.67 29 7.34 29 7 29 C6.67 24.05 6.34 19.1 6 14 C4.35 14 2.7 14 1 14 C1 14.66 1 15.32 1 16 C1.99 16.33 2.98 16.66 4 17 C4 21.29 4 25.58 4 30 C3.01 30 2.02 30 1 30 C1.33 30.99 1.66 31.98 2 33 C-3.94 33 -9.88 33 -16 33 C-16 32.01 -16 31.02 -16 30 C-15.01 29.67 -14.02 29.34 -13 29 C-13 21.74 -13 14.48 -13 7 C-13.99 6.67 -14.98 6.34 -16 6 C-16 5.34 -16 4.68 -16 4 C-13.70922959 3.33011414 -11.41748541 2.66396838 -9.125 2 C-8.47402344 1.80921875 -7.82304687 1.6184375 -7.15234375 1.421875 C-2.2265625 0 -2.2265625 0 0 0 Z " fill="#F5F6FB" transform="translate(180,66)"/>
<path d="M0 0 C0.33 0 0.66 0 1 0 C0.95875 1.299375 0.9175 2.59875 0.875 3.9375 C1.50047284 9.82814717 4.97746036 12.50533713 9.26171875 16.25 C12.25797178 18.16486641 14.48817813 18.67092738 18 19 C18.2475 20.093125 18.495 21.18625 18.75 22.3125 C20.02002851 26.05908409 20.65756352 27.10595266 24 29 C24.33 27.35 24.66 25.7 25 24 C25.33 24 25.66 24 26 24 C26.2475 25.27875 26.495 26.5575 26.75 27.875 C27.47116817 31.22370361 27.47116817 31.22370361 30.0625 33.3125 C30.701875 33.539375 31.34125 33.76625 32 34 C32.33 34.99 32.66 35.98 33 37 C32.28972656 37.12117188 31.57945312 37.24234375 30.84765625 37.3671875 C29.46900391 37.61855469 29.46900391 37.61855469 28.0625 37.875 C26.68771484 38.11863281 26.68771484 38.11863281 25.28515625 38.3671875 C24.53105469 38.57601562 23.77695313 38.78484375 23 39 C22.67 39.66 22.34 40.32 22 41 C23.32 41.33 24.64 41.66 26 42 C26 49.26 26 56.52 26 64 C23.525 64.495 23.525 64.495 21 65 C20.67 65.99 20.34 66.98 20 68 C20 67.34 20 66.68 20 66 C18.515 65.505 18.515 65.505 17 65 C15.84589746 62.69179492 15.8789703 61.39215724 15.88647461 58.82568359 C15.88655014 57.96494232 15.88662567 57.10420105 15.88670349 56.21737671 C15.89186478 55.28712677 15.89702606 54.35687683 15.90234375 53.3984375 C15.9037587 52.44683746 15.90517365 51.49523743 15.90663147 50.51480103 C15.91223988 47.46816903 15.92479381 44.42160987 15.9375 41.375 C15.94251392 39.31250106 15.94707701 37.25000097 15.95117188 35.1875 C15.96221204 30.12497183 15.97948233 25.06249827 16 20 C11.38 20.66 6.76 21.32 2 22 C0.18752079 18.37504158 -0.24864042 17.4048294 -0.1953125 13.671875 C-0.18886719 12.87265625 -0.18242188 12.0734375 -0.17578125 11.25 C-0.15902344 10.425 -0.14226562 9.6 -0.125 8.75 C-0.11597656 7.90953125 -0.10695313 7.0690625 -0.09765625 6.203125 C-0.07415817 4.13529396 -0.03828908 2.06761005 0 0 Z " fill="#AFB3DE" transform="translate(121,31)"/>
<path d="M0 0 C0.01458252 1.28688721 0.02916504 2.57377441 0.04418945 3.8996582 C0.10211148 8.6689855 0.17934463 13.43783762 0.26245117 18.20678711 C0.29572924 20.2718129 0.32375214 22.33693027 0.34643555 24.40209961 C0.37992855 27.36872432 0.43224145 30.33450748 0.48828125 33.30078125 C0.49467117 34.2258699 0.5010611 35.15095856 0.50764465 36.1040802 C0.52743881 36.96474594 0.54723297 37.82541168 0.56762695 38.7121582 C0.57873001 39.46938675 0.58983307 40.2266153 0.60127258 41.00679016 C1.10003716 43.50007861 2.16526448 44.30971239 4 46 C4 46.66 4 47.32 4 48 C-1.94 48 -7.88 48 -14 48 C-14 47.01 -14 46.02 -14 45 C-12.515 44.505 -12.515 44.505 -11 44 C-11 31.46 -11 18.92 -11 6 C-12.32 5.34 -13.64 4.68 -15 4 C-15 3.34 -15 2.68 -15 2 C-13.43883181 1.66048381 -11.87598662 1.32867456 -10.3125 1 C-9.44238281 0.814375 -8.57226562 0.62875 -7.67578125 0.4375 C-5.05901776 0.00964962 -2.64492638 -0.0310028 0 0 Z " fill="#FCFDFE" transform="translate(137,51)"/>
<path d="M0 0 C4.3111505 2.15557525 5.91654831 9.38699568 7.50390625 13.77734375 C12.02977629 27.9814086 8.72732565 44.50280258 7 59 C4.625 59.125 4.625 59.125 2 59 C-1.39590067 55.60409933 -1.11676171 52.17838892 -1.13894653 47.49409485 C-1.1369223 46.78061386 -1.13489807 46.06713287 -1.1328125 45.33203125 C-1.13376923 44.57895187 -1.13472595 43.8258725 -1.13571167 43.04997253 C-1.13639186 41.45038774 -1.1345488 39.85080018 -1.13037109 38.2512207 C-1.12511779 35.86598034 -1.13027016 33.48093687 -1.13671875 31.09570312 C-1.14076504 20.69713982 -0.72722062 10.37241896 0 0 Z " fill="#F2F3F9" transform="translate(21,33)"/>
<path d="M0 0 C2 2 2 2 2.125 4.625 C2.08375 5.40875 2.0425 6.1925 2 7 C-0.3125 7.6875 -0.3125 7.6875 -3 8 C-4.02104551 7.02149805 -5.0206121 6.02019573 -6 5 C-8.54230847 4.58320703 -8.54230847 4.58320703 -11 5 C-13.24112088 6.82302652 -13.24112088 6.82302652 -13.265625 9.4609375 C-13.26046875 10.42257813 -13.2553125 11.38421875 -13.25 12.375 C-13.25515625 13.33148438 -13.2603125 14.28796875 -13.265625 15.2734375 C-12.9957738 18.04338074 -12.50531282 19.678426 -11 22 C-6.72000646 24.13999677 -1.50951645 23.09321611 3 22 C2.78931408 25.68700366 1.9954447 27.00512471 -0.5 29.8125 C-3.82614921 32.34101151 -6.65540412 32.61400613 -10.7578125 32.3515625 C-15.6749077 31.58058939 -18.92330408 30.07669592 -22.4375 26.5625 C-24.72639928 21.34380963 -24.74093661 16.61105123 -24 11 C-21.94929544 6.30046872 -18.79515421 3.47177917 -14.4296875 0.91015625 C-9.79991184 -0.82414878 -4.85101409 -0.70899437 0 0 Z " fill="#F6F7FB" transform="translate(229,68)"/>
<path d="M0 0 C4.62 0 9.24 0 14 0 C15.3633302 2.98883928 16.68834111 5.98833608 18 9 C18.26216309 9.58394531 18.52432617 10.16789062 18.79443359 10.76953125 C19.65299052 12.69269876 20.48418487 14.62613811 21.3125 16.5625 C21.73039795 17.48107788 21.73039795 17.48107788 22.15673828 18.41821289 C24.62878134 24.31894044 24.14067497 28.77495911 22.02734375 34.75 C21.66769531 35.4925 21.30804688 36.235 20.9375 37 C20.57527344 37.763125 20.21304688 38.52625 19.83984375 39.3125 C19.56269531 39.869375 19.28554688 40.42625 19 41 C15.86409232 37.31123174 14.13047336 33.16085363 12.20703125 28.76953125 C11.85613937 27.9785051 11.5052475 27.18747894 11.14372253 26.3724823 C10.40599739 24.70682015 9.67071996 23.040072 8.93774414 21.37231445 C7.81092898 18.80892608 6.67663511 16.24895152 5.54101562 13.68945312 C4.82508408 12.07050557 4.10957437 10.45137139 3.39453125 8.83203125 C3.05396194 8.0622847 2.71339264 7.29253815 2.36250305 6.49946594 C0 1.11690485 0 1.11690485 0 0 Z " fill="#414242" transform="translate(40,21)"/>
<path d="M0 0 C0.99 0.33 1.98 0.66 3 1 C3.33 2.65 3.66 4.3 4 6 C5.32 5.67 6.64 5.34 8 5 C7.67 5.969375 7.34 6.93875 7 7.9375 C5.13707624 14.51095955 5.39866472 20.65924525 8 27 C8.66 27 9.32 27 10 27 C10 27.66 10 28.32 10 29 C12.31 29.66 14.62 30.32 17 31 C17 31.99 17 32.98 17 34 C9.14975493 35.72739597 9.14975493 35.72739597 4.9375 33.0625 C2.35887968 28.98661626 2.59774883 26.74656376 3 22 C2.319375 22.33 1.63875 22.66 0.9375 23 C-2.6315661 24.21500122 -5.25125498 24.408954 -9 24 C-11.36497439 22.13291495 -12.66030715 20.67938569 -14 18 C-14.14716542 16.19156337 -14.2210887 14.37668434 -14.25 12.5625 C-14.27578125 11.59441406 -14.3015625 10.62632813 -14.328125 9.62890625 C-14 7 -14 7 -12.640625 5.17578125 C-10.29941606 3.49791484 -8.81249205 3.57812619 -6 4 C-4.97980427 4.9793879 -3.97850195 5.97895449 -3 7 C-1.68 7 -0.36 7 1 7 C1.15149298 3.37114676 1.15149298 3.37114676 0 0 Z " fill="#B5BAE6" transform="translate(229,68)"/>
<path d="M0 0 C4.875 0.875 4.875 0.875 6 2 C6.04063832 3.66617115 6.042721 5.33388095 6 7 C4.77023438 7.38091797 4.77023438 7.38091797 3.515625 7.76953125 C2.43796875 8.11371094 1.3603125 8.45789063 0.25 8.8125 C-0.81734375 9.14894531 -1.8846875 9.48539063 -2.984375 9.83203125 C-5.84626045 10.94045579 -7.81012853 11.86214448 -10 14 C-10.7170731 18.93983691 -10.77880489 20.86719289 -7.9375 25 C-4.26383061 27.50122172 -2.36916255 27.54614532 2 27 C4.83378132 26.1025173 4.83378132 26.1025173 7 25 C7.66 25.66 8.32 26.32 9 27 C12.58343976 27.16677282 12.58343976 27.16677282 16 27 C16.226875 27.639375 16.45375 28.27875 16.6875 28.9375 C17.85250896 31.27193661 17.85250896 31.27193661 20.625 31.75 C21.40875 31.8325 22.1925 31.915 23 32 C23 31.01 23 30.02 23 29 C24.65 29 26.3 29 28 29 C26.375 31 26.375 31 24 33 C20.75 33.25 20.75 33.25 18 33 C18 33.99 18 34.98 18 36 C20.475 35.505 20.475 35.505 23 35 C23.66 35.99 24.32 36.98 25 38 C22.58063683 38.16249454 20.17218141 38.28097817 17.75 38.375 C17.06808594 38.42527344 16.38617188 38.47554687 15.68359375 38.52734375 C13.671875 38.5859375 13.671875 38.5859375 10 38 C7.37160187 34.97235152 6.0985449 33.13326637 5.75 29.125 C5.8325 28.42375 5.915 27.7225 6 27 C5.34 27 4.68 27 4 27 C3.34 30.3 2.68 33.6 2 37 C-0.97 37 -3.94 37 -7 37 C-7 35.68 -7 34.36 -7 33 C-7.66 33 -8.32 33 -9 33 C-10.65 29.04 -12.3 25.08 -14 21 C-14.66 21 -15.32 21 -16 21 C-14.45730076 16.27934033 -12.92205381 11.58335908 -11 7 C-8.03 7.33 -5.06 7.66 -2 8 C-1.34 5.36 -0.68 2.72 0 0 Z " fill="#4B4D5D" transform="translate(72,72)"/>
<path d="M0 0 C0.01458252 0.80743652 0.02916504 1.61487305 0.04418945 2.44677734 C0.11846086 6.0900127 0.21519025 9.73231033 0.3125 13.375 C0.33505859 14.64601563 0.35761719 15.91703125 0.38085938 17.2265625 C0.41630859 18.43828125 0.45175781 19.65 0.48828125 20.8984375 C0.51446533 22.01911621 0.54064941 23.13979492 0.56762695 24.29443359 C0.71031006 25.18727051 0.85299316 26.08010742 1 27 C1.99 27.66 2.98 28.32 4 29 C4 29.66 4 30.32 4 31 C-2.27 31 -8.54 31 -15 31 C-15 30.01 -15 29.02 -15 28 C-14.01 27.67 -13.02 27.34 -12 27 C-12 19.74 -12 12.48 -12 5 C-12.99 4.67 -13.98 4.34 -15 4 C-14.67 3.01 -14.34 2.02 -14 1 C-9.23013567 0.04602713 -4.83855385 -0.03998805 0 0 Z " fill="#F7F8FC" transform="translate(158,68)"/>
<path d="M0 0 C6.35911608 -0.6056301 9.34625406 1.87797 14.14453125 5.71484375 C17.32069631 9.62654177 16.59315137 13.72153822 16.45703125 18.56640625 C15.71368474 24.15103517 13.61810155 26.99278881 9.125 30.4375 C6.06067971 31.24864361 3.15006275 31.12115626 0 31 C0.66 30.67 1.32 30.34 2 30 C3.50315209 25.61820377 3.22252806 21.01501246 3.25 16.4375 C3.270625 15.57447266 3.29125 14.71144531 3.3125 13.82226562 C3.32023437 12.57799805 3.32023437 12.57799805 3.328125 11.30859375 C3.34214355 10.17635376 3.34214355 10.17635376 3.35644531 9.02124023 C3.1797621 6.88898454 3.1797621 6.88898454 1.47949219 5.48071289 C0 4 0 4 0 0 Z " fill="#3D3E41" transform="translate(267,78)"/>
<path d="M0 0 C8.91 0 17.82 0 27 0 C25 4 25 4 23 6 C19.875 6.125 19.875 6.125 17 6 C17.33 7.98 17.66 9.96 18 12 C34.335 12.495 34.335 12.495 51 13 C51 13.33 51 13.66 51 14 C34.17 14 17.34 14 0 14 C0 9.38 0 4.76 0 0 Z " fill="#FCFCFD" transform="translate(0,99)"/>
<path d="M0 0 C0.66 0.33 1.32 0.66 2 1 C2 2.98 2 4.96 2 7 C3.98 7 5.96 7 8 7 C8.19219715 16.69527822 7.59581324 26.32867432 7 36 C5.515 35.505 5.515 35.505 4 35 C4.66 35 5.32 35 6 35 C6 33.02 6 31.04 6 29 C3.69 29 1.38 29 -1 29 C-0.34 31.97 0.32 34.94 1 38 C-4.61 38 -10.22 38 -16 38 C-16 37.34 -16 36.68 -16 36 C-15.01 35.505 -15.01 35.505 -14 35 C-13.67 32.69 -13.34 30.38 -13 28 C-7.06 28 -1.12 28 5 28 C3.68 26.68 2.36 25.36 1 24 C0.45410156 21.34277344 0.45410156 21.34277344 0.390625 18.359375 C0.35839844 17.28945312 0.32617188 16.21953125 0.29296875 15.1171875 C0.27878906 14.00601563 0.26460937 12.89484375 0.25 11.75 C0.22035156 10.62335938 0.19070312 9.49671875 0.16015625 8.3359375 C0.08951088 5.55721979 0.03678723 2.77933852 0 0 Z " fill="#8C91BD" transform="translate(197,71)"/>
<path d="M0 0 C7.9957433 11.99361496 7.60660773 23.01629203 7 37 C5.68 37 4.36 37 3 37 C2.67 38.32 2.34 39.64 2 41 C2 39.02 2 37.04 2 35 C0.68 35 -0.64 35 -2 35 C-1.34 23.45 -0.68 11.9 0 0 Z " fill="#30333E" transform="translate(31,58)"/>
<path d="M0 0 C9.24 0 18.48 0 28 0 C28 1.65 28 3.3 28 5 C25.98177083 5.42317708 23.96354167 5.84635417 21.9453125 6.26953125 C19.62953451 6.92308838 19.62953451 6.92308838 18 10 C17.60612212 12.32387947 17.26513915 14.65793749 17 17 C10.7431117 12.6525708 4.99302252 7.77896125 0 2 C0 1.34 0 0.68 0 0 Z " fill="#404142" transform="translate(104,21)"/>
<path d="M0 0 C4.62 0 9.24 0 14 0 C16.24193548 6.72580645 16.24193548 6.72580645 15 10 C13.72334639 13.82996083 13.62939106 17.49081989 13.37890625 21.50390625 C13 24 13 24 11 26 C9.16370918 21.8554703 7.33146258 17.70916529 5.5 13.5625 C4.97535156 12.37849609 4.45070313 11.19449219 3.91015625 9.97460938 C3.41386719 8.84990234 2.91757812 7.72519531 2.40625 6.56640625 C1.94541016 5.52427979 1.48457031 4.48215332 1.00976562 3.40844727 C0 1 0 1 0 0 Z " fill="#33353E" transform="translate(40,21)"/>
<path d="M0 0 C1.65 0.33 3.3 0.66 5 1 C7.4983888 7.7144199 8.84268099 16.6555252 5.984375 23.39453125 C5.49710938 24.18923828 5.49710938 24.18923828 5 25 C3.35 24.67 1.7 24.34 0 24 C-1.83454621 19.30443531 -2.27001705 15.34178428 -2.25 10.3125 C-2.25515625 9.00925781 -2.2603125 7.70601563 -2.265625 6.36328125 C-2 3 -2 3 0 0 Z " fill="#A1A7D9" transform="translate(248,71)"/>
<path d="M0 0 C0.33 0 0.66 0 1 0 C1.28618748 27.76018549 1.28618748 27.76018549 -1 38 C0.32 38 1.64 38 3 38 C3 39.98 3 41.96 3 44 C-7.89 44 -18.78 44 -30 44 C-30 42.02 -30 40.04 -30 38 C-27.03 37.505 -27.03 37.505 -24 37 C-24 37.99 -24 38.98 -24 40 C-17.07 40 -10.14 40 -3 40 C-2.67 39.34 -2.34 38.68 -2 38 C-3.485 37.505 -3.485 37.505 -5 37 C-4.01 37 -3.02 37 -2 37 C-2.020625 35.81535156 -2.04125 34.63070312 -2.0625 33.41015625 C-2.0625 26.73185222 -1.5038552 20.09315489 -1 13.4375 C-0.90460937 12.14263672 -0.80921875 10.84777344 -0.7109375 9.51367188 C-0.47688194 6.34221899 -0.23982778 3.17102072 0 0 Z " fill="#3D4BAF" transform="translate(30,55)"/>
<path d="M0 0 C0.99 1.485 0.99 1.485 2 3 C5.08365871 3.2502157 5.08365871 3.2502157 8 3 C8.33 2.34 8.66 1.68 9 1 C9 7.6 9 14.2 9 21 C7.68 21.33 6.36 21.66 5 22 C4.67 21.01 4.34 20.02 4 19 C2.68 19.33 1.36 19.66 0 20 C0 13.4 0 6.8 0 0 Z " fill="#080F4A" transform="translate(89,74)"/>
<path d="M0 0 C0.33 0 0.66 0 1 0 C1 12.21 1 24.42 1 37 C0.67 37 0.34 37 0 37 C-0.020625 35.824375 -0.04125 34.64875 -0.0625 33.4375 C-0.67928983 28.03095167 -3.98791809 25.3521311 -8 22 C-5.79720923 14.41911898 -3.4539032 7.10989647 0 0 Z " fill="#C2C7EC" transform="translate(81,28)"/>
<path d="M0 0 C0.33 1.32 0.66 2.64 1 4 C-2.63 4.66 -6.26 5.32 -10 6 C-10 6.66 -10 7.32 -10 8 C-8.68 8.33 -7.36 8.66 -6 9 C-6 16.26 -6 23.52 -6 31 C-7.98 31.495 -7.98 31.495 -10 32 C-10 27.71 -10 23.42 -10 19 C-11.32 18.67 -12.64 18.34 -14 18 C-14 17.34 -14 16.68 -14 16 C-10.535 15.505 -10.535 15.505 -7 15 C-7 13.35 -7 11.7 -7 10 C-8.32 9.67 -9.64 9.34 -11 9 C-11 6.36 -11 3.72 -11 1 C-7.2297564 -1.56376565 -4.32597804 -0.83191885 0 0 Z " fill="#51546E" transform="translate(174,64)"/>
<path d="M0 0 C0.99 1.32 1.98 2.64 3 4 C6.16265 7.44502693 6.16265 7.44502693 10 10 C10.625 13.0625 10.625 13.0625 11 16 C11.99 16.33 12.98 16.66 14 17 C14 17.99 14 18.98 14 20 C8.39 20 2.78 20 -3 20 C-3 19.34 -3 18.68 -3 18 C-2.01 18 -1.02 18 0 18 C0 12.06 0 6.12 0 0 Z " fill="#3E3F4A" transform="translate(204,89)"/>
<path d="M0 0 C0.7734375 0.495 0.7734375 0.495 1.5625 1 C4.78026512 2.32010877 7.5570528 2.13242105 11 2 C11.3403125 2.9590625 11.3403125 2.9590625 11.6875 3.9375 C12.85250896 6.27193661 12.85250896 6.27193661 15.625 6.75 C16.40875 6.8325 17.1925 6.915 18 7 C18 6.01 18 5.02 18 4 C19.65 4 21.3 4 23 4 C21.375 6 21.375 6 19 8 C15.75 8.25 15.75 8.25 13 8 C13 8.99 13 9.98 13 11 C14.65 10.67 16.3 10.34 18 10 C18.99 11.485 18.99 11.485 20 13 C17.58063683 13.16249454 15.17218141 13.28097817 12.75 13.375 C12.06808594 13.42527344 11.38617188 13.47554687 10.68359375 13.52734375 C8.671875 13.5859375 8.671875 13.5859375 5 13 C2.37160187 9.97235152 1.0985449 8.13326637 0.75 4.125 C0.8325 3.42375 0.915 2.7225 1 2 C-0.32 2.33 -1.64 2.66 -3 3 C-2.01 2.01 -1.02 1.02 0 0 Z " fill="#40414E" transform="translate(77,97)"/>
<path d="M0 0 C3 1 3 1 4 3 C4.23714528 6.1402818 4.1851834 9.28923801 4.1875 12.4375 C4.19974609 13.30955078 4.21199219 14.18160156 4.22460938 15.08007812 C4.22750977 16.33788086 4.22750977 16.33788086 4.23046875 17.62109375 C4.23457764 18.3886499 4.23868652 19.15620605 4.24291992 19.94702148 C4 22 4 22 2 25 C0.125 24.75 0.125 24.75 -2 24 C-4.37454095 20.79436971 -4.36656149 17.88555184 -4 14 C-3.32594029 11.67367197 -2.55087489 9.40503743 -1.734375 7.125 C-0.92321525 4.77781434 -0.39527527 2.45070667 0 0 Z " fill="#EEEFF0" transform="translate(267,82)"/>
<path d="M0 0 C3.92464963 1.59893133 6.44266147 3.61325438 9 7 C9.7121911 10.66417158 9.92818973 14.27239436 10 18 C3.58501441 18.36311239 3.58501441 18.36311239 1.1875 16.875 C-0.97166712 13.46578876 -2.17010966 10.42892111 -1.6875 6.375 C-1.460625 5.59125 -1.23375 4.8075 -1 4 C-0.814375 3.236875 -0.62875 2.47375 -0.4375 1.6875 C-0.293125 1.130625 -0.14875 0.57375 0 0 Z " fill="#EFF0F6" transform="translate(72,50)"/>
<path d="M0 0 C0 1.70705558 -0.00533934 3.41417999 -0.02734375 5.12109375 C0.06821432 7.58483006 0.25180029 9.64487136 1 12 C3.23100508 14.02721135 5.16734518 14.81543526 8 16 C8 16.33 8 16.66 8 17 C-3.95020188 17.78734859 -3.95020188 17.78734859 -8 14.75 C-8.99 13.38875 -8.99 13.38875 -10 12 C-11.64864545 10.64444707 -13.31003995 9.30368347 -15 8 C-15.33 8.66 -15.66 9.32 -16 10 C-16 9.01 -16 8.02 -16 7 C-15.02160156 6.87044922 -15.02160156 6.87044922 -14.0234375 6.73828125 C-7.85382562 5.74641149 -4.42933725 4.42933725 0 0 Z " fill="#4E505D" transform="translate(264,93)"/>
<path d="M0 0 C5.32683552 -0.50731767 7.82526994 0.73281996 12 4 C12.71414063 4.556875 13.42828125 5.11375 14.1640625 5.6875 C16.73374434 8.92420563 16.400815 11.17799507 16.25 15.25 C16.21390625 16.51328125 16.1778125 17.7765625 16.140625 19.078125 C16.07101562 20.52445313 16.07101562 20.52445313 16 22 C15.67 22 15.34 22 15 22 C14.67 18.7 14.34 15.4 14 12 C11.03 11.67 8.06 11.34 5 11 C5 15.62 5 20.24 5 25 C4.67 25 4.34 25 4 25 C3.96261719 23.73542969 3.92523438 22.47085938 3.88671875 21.16796875 C3.82106167 19.5077827 3.75461424 17.84762778 3.6875 16.1875 C3.66494141 15.35412109 3.64238281 14.52074219 3.61914062 13.66210938 C3.58369141 12.85966797 3.54824219 12.05722656 3.51171875 11.23046875 C3.48553467 10.49207764 3.45935059 9.75368652 3.43237305 8.99291992 C3.16559311 6.88807752 3.16559311 6.88807752 1.46801758 5.4855957 C0 4 0 4 0 0 Z " fill="#4C4D51" transform="translate(267,78)"/>
<path d="M0 0 C3.0625 0.25 3.0625 0.25 6 1 C7.17426264 3.34852528 7.11508173 4.73774065 7.09765625 7.3515625 C7.09443359 8.20234375 7.09121094 9.053125 7.08789062 9.9296875 C7.07951172 10.81914063 7.07113281 11.70859375 7.0625 12.625 C7.05798828 13.5221875 7.05347656 14.419375 7.04882812 15.34375 C7.03702591 17.56256648 7.02056155 19.78125018 7 22 C6.67 22 6.34 22 6 22 C5.67 17.05 5.34 12.1 5 7 C3.35 7 1.7 7 0 7 C0 7.66 0 8.32 0 9 C0.99 9.33 1.98 9.66 3 10 C3 14.29 3 18.58 3 23 C1.35 22.67 -0.3 22.34 -2 22 C-2.05790353 18.70840684 -2.09356261 15.41694397 -2.125 12.125 C-2.14175781 11.18785156 -2.15851563 10.25070313 -2.17578125 9.28515625 C-2.18544922 7.94130859 -2.18544922 7.94130859 -2.1953125 6.5703125 C-2.20578613 5.74289551 -2.21625977 4.91547852 -2.22705078 4.06298828 C-2 2 -2 2 0 0 Z " fill="#BDC0E6" transform="translate(181,73)"/>
<path d="M0 0 C3.875 0.875 3.875 0.875 5 2 C5.08861992 4.8116338 5.11522355 7.59858255 5.09765625 10.41015625 C5.0962413 11.25219101 5.09482635 12.09422577 5.09336853 12.96177673 C5.08775263 15.66205335 5.07519748 18.36224828 5.0625 21.0625 C5.05748705 22.88867068 5.05292379 24.71484266 5.04882812 26.54101562 C5.03777804 31.02737542 5.02050279 35.51367384 5 40 C4.67 40 4.34 40 4 40 C3.67 34.39 3.34 28.78 3 23 C2.01 23 1.02 23 0 23 C-0.93959624 17.70346121 -0.98841115 12.91331483 -0.5625 7.5625 C-0.51029297 6.83095703 -0.45808594 6.09941406 -0.40429688 5.34570312 C-0.27615124 3.56331378 -0.1390184 1.7815743 0 0 Z " fill="#9FA4D2" transform="translate(122,55)"/>
<path d="M0 0 C0.33 0 0.66 0 1 0 C1.25829838 13.48891553 0.59617885 26.60349893 -1 40 C-3.375 40.125 -3.375 40.125 -6 40 C-6.66 39.34 -7.32 38.68 -8 38 C-7.73551252 34.91431278 -6.83573166 32.6386982 -5.55078125 29.8125 C-3.91700972 26.04343396 -3.06660548 22.22455733 -2.375 18.1875 C-2.25020264 17.49333984 -2.12540527 16.79917969 -1.99682617 16.08398438 C-1.06326608 10.74652334 -0.37695634 5.40737377 0 0 Z " fill="#C4C9EC" transform="translate(29,52)"/>
<path d="M0 0 C0.33 0.66 0.66 1.32 1 2 C0.01 2.495 0.01 2.495 -1 3 C-0.01 3.33 0.98 3.66 2 4 C2.06058594 4.98742187 2.12117187 5.97484375 2.18359375 6.9921875 C2.26738281 8.27351563 2.35117188 9.55484375 2.4375 10.875 C2.51871094 12.15117188 2.59992188 13.42734375 2.68359375 14.7421875 C2.79206027 17.88300152 2.79206027 17.88300152 4 20 C4.99 20.33 5.98 20.66 7 21 C7 25.29 7 29.58 7 34 C5.02 34.495 5.02 34.495 3 35 C1 33 1 33 0.77294922 30.29443359 C0.78342285 29.17375488 0.79389648 28.05307617 0.8046875 26.8984375 C0.81113281 25.68671875 0.81757813 24.475 0.82421875 23.2265625 C0.84097656 21.95554687 0.85773438 20.68453125 0.875 19.375 C0.88402344 18.09625 0.89304688 16.8175 0.90234375 15.5 C0.92597697 12.33314833 0.95892371 9.16666576 1 6 C-0.65 5.67 -2.3 5.34 -4 5 C-4 4.34 -4 3.68 -4 3 C-4.66 2.67 -5.32 2.34 -6 2 C-4.02 1.34 -2.04 0.68 0 0 Z " fill="#A6A9C7" transform="translate(157,62)"/>
<path d="M0 0 C3.63 0 7.26 0 11 0 C11 1.98 11 3.96 11 6 C12.32 6.33 13.64 6.66 15 7 C15 7.66 15 8.32 15 9 C9.06 9 3.12 9 -3 9 C-2.67 8.01 -2.34 7.02 -2 6 C-1.34 6 -0.68 6 0 6 C0 4.02 0 2.04 0 0 Z " fill="#414347" transform="translate(143,100)"/>
<path d="M0 0 C6.27 0 12.54 0 19 0 C19 0.33 19 0.66 19 1 C16.03 1 13.06 1 10 1 C10 1.99 10 2.98 10 4 C11.32 4 12.64 4 14 4 C14 4.99 14 5.98 14 7 C9.78929481 9.40611725 6.86324671 10.52861377 2 10 C-0.1875 9 -0.1875 9 -2 8 C-2.99 8 -3.98 8 -5 8 C-5 7.01 -5 6.02 -5 5 C-4.43410156 4.86722656 -3.86820312 4.73445313 -3.28515625 4.59765625 C-2.18494141 4.33275391 -2.18494141 4.33275391 -1.0625 4.0625 C0.03384766 3.80146484 0.03384766 3.80146484 1.15234375 3.53515625 C2.99969898 3.16112431 2.99969898 3.16112431 4 2 C2.68 1.34 1.36 0.68 0 0 Z " fill="#10121A" transform="translate(95,100)"/>
<path d="M0 0 C0.33 0 0.66 0 1 0 C1.13277344 0.75925781 1.26554688 1.51851563 1.40234375 2.30078125 C1.57894531 3.29464844 1.75554687 4.28851563 1.9375 5.3125 C2.19853516 6.79169922 2.19853516 6.79169922 2.46484375 8.30078125 C2.95746847 11.08189213 2.95746847 11.08189213 4 14 C4.66 14 5.32 14 6 14 C6 14.66 6 15.32 6 16 C8.31 16.66 10.62 17.32 13 18 C13 18.99 13 19.98 13 21 C5.14975493 22.72739597 5.14975493 22.72739597 0.9375 20.0625 C-1.64112032 15.98661626 -1.40225117 13.74656376 -1 9 C-1.66 8.67 -2.32 8.34 -3 8 C-2.01 5.36 -1.02 2.72 0 0 Z " fill="#D6D8E6" transform="translate(233,81)"/>
<path d="M0 0 C3.3 0 6.6 0 10 0 C10.28875 0.969375 10.5775 1.93875 10.875 2.9375 C11.64214682 6.10664203 11.64214682 6.10664203 14 7 C14 7.66 14 8.32 14 9 C8.06 9 2.12 9 -4 9 C-4 8.34 -4 7.68 -4 7 C-3.01 6.34 -2.02 5.68 -1 5 C-0.27034634 2.43717258 -0.27034634 2.43717258 0 0 Z " fill="#3D3E43" transform="translate(164,100)"/>
<path d="M0 0 C1.52150158 3.04300316 1.23899393 5.654085 1 9 C-2.45029042 11.30019361 -3.94554358 11.43132515 -8 11 C-10.31361802 7.52957297 -10.51020728 6.08165827 -10 2 C-6.95805567 -1.62693363 -4.34226025 -1.25443074 0 0 Z " fill="#F7F8FC" transform="translate(157,53)"/>
<path d="M0 0 C3.3 0 6.6 0 10 0 C11 3 12 6 13 9 C7.39 9 1.78 9 -4 9 C-4 8.34 -4 7.68 -4 7 C-3.01 6.34 -2.02 5.68 -1 5 C-0.27034634 2.43717258 -0.27034634 2.43717258 0 0 Z " fill="#3D3E43" transform="translate(185,100)"/>
<path d="M0 0 C4.875 0.875 4.875 0.875 6 2 C6.04063832 3.66617115 6.042721 5.33388095 6 7 C4.77023438 7.38091797 4.77023438 7.38091797 3.515625 7.76953125 C2.43796875 8.11371094 1.3603125 8.45789063 0.25 8.8125 C-0.81734375 9.14894531 -1.8846875 9.48539063 -2.984375 9.83203125 C-5.83547144 10.93627715 -7.76736834 11.93274846 -10 14 C-11.28008262 17.08777172 -11.28008262 17.08777172 -12 20 C-14 17 -14 17 -13.5390625 14.51953125 C-13.23742188 13.62621094 -12.93578125 12.73289062 -12.625 11.8125 C-12.32851563 10.91144531 -12.03203125 10.01039062 -11.7265625 9.08203125 C-11.48679688 8.39496094 -11.24703125 7.70789063 -11 7 C-8.03 7.33 -5.06 7.66 -2 8 C-1.34 5.36 -0.68 2.72 0 0 Z " fill="#353B6D" transform="translate(72,72)"/>
<path d="M0 0 C0.33 0 0.66 0 1 0 C0.95875 1.299375 0.9175 2.59875 0.875 3.9375 C1.34956207 8.83871484 3.44403227 10.84721838 7.0625 14.0625 C8.68992134 15.39776155 10.33021301 16.71811271 12 18 C11.67 18.99 11.34 19.98 11 21 C8.03 21.33 5.06 21.66 2 22 C0.18752079 18.37504158 -0.24864042 17.4048294 -0.1953125 13.671875 C-0.18886719 12.87265625 -0.18242188 12.0734375 -0.17578125 11.25 C-0.15902344 10.425 -0.14226562 9.6 -0.125 8.75 C-0.11597656 7.90953125 -0.10695313 7.0690625 -0.09765625 6.203125 C-0.07415817 4.13529396 -0.03828908 2.06761005 0 0 Z " fill="#B0B4D7" transform="translate(121,31)"/>
<path d="M0 0 C1.2153691 3.64610731 0.65387751 4.63565227 -0.75 8.125 C-1.09546875 9.01445313 -1.4409375 9.90390625 -1.796875 10.8203125 C-3 13 -3 13 -6 14 C-8.33299825 14.03954234 -10.66708189 14.04401732 -13 14 C-10.60178926 7.85458498 -5.92376954 2.96188477 0 0 Z " fill="#363953" transform="translate(233,78)"/>
<path d="M0 0 C1.32 0 2.64 0 4 0 C4 7.26 4 14.52 4 22 C2.68 22.33 1.36 22.66 0 23 C0 15.41 0 7.82 0 0 Z " fill="#353759" transform="translate(143,73)"/>
<path d="M0 0 C3.28217533 1.64108767 3.9066035 5.17347434 5.1875 8.4375 C5.47302734 9.13166016 5.75855469 9.82582031 6.05273438 10.54101562 C6.76695073 12.33611416 7.39030809 14.16676255 8 16 C7.67 16.66 7.34 17.32 7 18 C5.02 17.67 3.04 17.34 1 17 C0.67 18.32 0.34 19.64 0 21 C0 14.07 0 7.14 0 0 Z " fill="#C2C6EC" transform="translate(39,79)"/>
<path d="M0 0 C0.90105469 0.03609375 1.80210937 0.0721875 2.73046875 0.109375 C3.76107422 0.17898437 3.76107422 0.17898437 4.8125 0.25 C5.1425 0.91 5.4725 1.57 5.8125 2.25 C4.719375 2.229375 3.62625 2.20875 2.5 2.1875 C-1.13134191 2.06455548 -1.13134191 2.06455548 -4.1875 3.25 C-4.1875 5.89 -4.1875 8.53 -4.1875 11.25 C-3.1975 11.58 -2.2075 11.91 -1.1875 12.25 C-1.1875 13.9 -1.1875 15.55 -1.1875 17.25 C-3.4975 17.25 -5.8075 17.25 -8.1875 17.25 C-8.26876087 15.16731407 -8.32680839 13.08371342 -8.375 11 C-8.40980469 9.83984375 -8.44460937 8.6796875 -8.48046875 7.484375 C-7.9435782 1.55710329 -5.87227517 -0.30505326 0 0 Z " fill="#EBECED" transform="translate(168.1875,61.75)"/>
<path d="M0 0 C0 5.28 0 10.56 0 16 C-1.32 16.33 -2.64 16.66 -4 17 C-4 12.71 -4 8.42 -4 4 C-5.32 3.67 -6.64 3.34 -8 3 C-8 2.34 -8 1.68 -8 1 C-5.23735711 0.40267181 -2.83967231 0 0 0 Z " fill="#383A58" transform="translate(168,79)"/>
<path d="M0 0 C2.25 1.6875 2.25 1.6875 3.25 4.6875 C-0.38 5.3475 -4.01 6.0075 -7.75 6.6875 C-8.08 5.6975 -8.41 4.7075 -8.75 3.6875 C-10.76508358 2.95426204 -10.76508358 2.95426204 -12.75 2.6875 C-12.75 1.6975 -12.75 0.7075 -12.75 -0.3125 C-8.038361 -1.38944606 -4.46991981 -2.13337082 0 0 Z " fill="#333655" transform="translate(150.75,63.3125)"/>
<path d="M0 0 C0.33 1.32 0.66 2.64 1 4 C7.6 4 14.2 4 21 4 C21.33 3.01 21.66 2.02 22 1 C22 2.32 22 3.64 22 5 C15.4 5 8.8 5 2 5 C2 6.32 2 7.64 2 9 C-0.375 9.125 -0.375 9.125 -3 9 C-3.66 8.34 -4.32 7.68 -5 7 C-5 5.68 -5 4.36 -5 3 C-2.5 1.25 -2.5 1.25 0 0 Z " fill="#7076B9" transform="translate(93,95)"/>
<path d="M0 0 C0 1.65 0 3.3 0 5 C-1.98 5.99 -1.98 5.99 -4 7 C-4 7.99 -4 8.98 -4 10 C-6.64 10 -9.28 10 -12 10 C-10.6875 8.5 -10.6875 8.5 -9 7 C-8.01 7 -7.02 7 -6 7 C-6 6.01 -6 5.02 -6 4 C-7.32 4 -8.64 4 -10 4 C-10 3.01 -10 2.02 -10 1 C-8.5209084 0.83266843 -7.04172444 0.66615314 -5.5625 0.5 C-4.73878906 0.4071875 -3.91507813 0.314375 -3.06640625 0.21875 C-1 0 -1 0 0 0 Z " fill="#3B3C3B" transform="translate(115,100)"/>
<path d="M0 0 C2.64 0.66 5.28 1.32 8 2 C8 3.65 8 5.3 8 7 C0.74 7 -6.52 7 -14 7 C-14 6.34 -14 5.68 -14 5 C-6.08 4.505 -6.08 4.505 2 4 C1.34 2.68 0.68 1.36 0 0 Z " fill="#191B1C" transform="translate(125,103)"/>
<path d="M0 0 C3 1 3 1 4 3 C4.06996014 4.70702735 4.08440154 6.41668003 4.0625 8.125 C4.05347656 9.03507812 4.04445313 9.94515625 4.03515625 10.8828125 C4.02355469 11.58148438 4.01195312 12.28015625 4 13 C2.02 13 0.04 13 -2 13 C-1.48041715 8.62065881 -0.94324258 4.31196609 0 0 Z " fill="#B7BADB" transform="translate(267,82)"/>
<path d="M0 0 C4.455 0.99 4.455 0.99 9 2 C8.67 3.32 8.34 4.64 8 6 C5.69 6.33 3.38 6.66 1 7 C0.67 11.95 0.34 16.9 0 22 C-0.33 22 -0.66 22 -1 22 C-1.02895225 18.70835171 -1.0467823 15.41673601 -1.0625 12.125 C-1.07506836 10.71927734 -1.07506836 10.71927734 -1.08789062 9.28515625 C-1.09111328 8.38925781 -1.09433594 7.49335937 -1.09765625 6.5703125 C-1.10289307 5.74289551 -1.10812988 4.91547852 -1.11352539 4.06298828 C-1 2 -1 2 0 0 Z " fill="#3F52BC" transform="translate(89,71)"/>
<path d="M0 0 C0.33 0 0.66 0 1 0 C1 5.28 1 10.56 1 16 C2.32 16 3.64 16 5 16 C4.34 15.01 3.68 14.02 3 13 C2.92094936 10.66800612 2.91201231 8.33167378 3 6 C3.99 6.33 4.98 6.66 6 7 C6 10.96 6 14.92 6 19 C4.35 19 2.7 19 1 19 C0 18 0 18 -0.11352539 16.23413086 C-0.10828857 15.48526611 -0.10305176 14.73640137 -0.09765625 13.96484375 C-0.09443359 13.15595703 -0.09121094 12.34707031 -0.08789062 11.51367188 C-0.07951172 10.66353516 -0.07113281 9.81339844 -0.0625 8.9375 C-0.05798828 8.08349609 -0.05347656 7.22949219 -0.04882812 6.34960938 C-0.03700373 4.23304337 -0.01906769 2.11651315 0 0 Z " fill="#3B427C" transform="translate(109,77)"/>
<path d="M0 0 C0 3.63 0 7.26 0 11 C-1.65 10.67 -3.3 10.34 -5 10 C-5.33 7.69 -5.66 5.38 -6 3 C-2.25 0 -2.25 0 0 0 Z " fill="#393E6E" transform="translate(78,83)"/>
<path d="M0 0 C2.97 0 5.94 0 9 0 C9 1.98 9 3.96 9 6 C6.03 6 3.06 6 0 6 C0 4.02 0 2.04 0 0 Z " fill="#F5F6F7" transform="translate(175,100)"/>
<path d="M0 0 C2.58258923 2.58258923 2.72987466 4.72875612 3.4375 8.22265625 C3.7159375 9.10244141 3.7159375 9.10244141 4 10 C4.66 10.33 5.32 10.66 6 11 C1.05 12.485 1.05 12.485 -4 14 C-3.25130208 11.52604167 -2.50260417 9.05208333 -1.75390625 6.578125 C-1.11531506 4.39434165 -0.53224167 2.21164502 0 0 Z " fill="#3E425B" transform="translate(69,57)"/>
<path d="M0 0 C2.31 0 4.62 0 7 0 C6.01 0.495 6.01 0.495 5 1 C5 1.66 5 2.32 5 3 C10.61 3 16.22 3 22 3 C22 3.33 22 3.66 22 4 C9.46 4 -3.08 4 -16 4 C-16 3.67 -16 3.34 -16 3 C-10.06 3 -4.12 3 2 3 C2 2.34 2 1.68 2 1 C1.34 0.67 0.68 0.34 0 0 Z " fill="#ADAEAF" transform="translate(176,106)"/>
<path d="M0 0 C1.32 0 2.64 0 4 0 C4 4.29 4 8.58 4 13 C2.68 12.67 1.36 12.34 0 12 C0 8.04 0 4.08 0 0 Z " fill="#F3F4F7" transform="translate(180,83)"/>
<path d="M0 0 C0.33 0 0.66 0 1 0 C1 2.64 1 5.28 1 8 C2.32 8.66 3.64 9.32 5 10 C5 11.65 5 13.3 5 15 C3.68 15.33 2.36 15.66 1 16 C1.33 17.32 1.66 18.64 2 20 C1.34 20 0.68 20 0 20 C0 13.4 0 6.8 0 0 Z " fill="#0E1E9E" transform="translate(89,74)"/>
<path d="M0 0 C2.64 0 5.28 0 8 0 C8 1.98 8 3.96 8 6 C5.36 6 2.72 6 0 6 C0 4.02 0 2.04 0 0 Z " fill="#F8F9FB" transform="translate(155,100)"/>
<path d="M0 0 C1.32 0 2.64 0 4 0 C4 3.96 4 7.92 4 12 C2.68 11.67 1.36 11.34 0 11 C0 7.37 0 3.74 0 0 Z " fill="#F5F6F9" transform="translate(159,83)"/>
<path d="M0 0 C5 1 5 1 8 3 C6.02 3.33 4.04 3.66 2 4 C2.14168137 5.43791516 2.28851043 6.8753237 2.4375 8.3125 C2.51871094 9.11300781 2.59992188 9.91351563 2.68359375 10.73828125 C2.95265693 13.16087179 2.95265693 13.16087179 4 16 C2.68 16 1.36 16 0 16 C0 10.72 0 5.44 0 0 Z " fill="#0F103D" transform="translate(110,77)"/>
<path d="M0 0 C0.99 0.33 1.98 0.66 3 1 C3.33 2.65 3.66 4.3 4 6 C5.32 5.67 6.64 5.34 8 5 C7.34 7.31 6.68 9.62 6 12 C5.34 11.67 4.68 11.34 4 11 C1.90178785 11.39938767 1.90178785 11.39938767 0 12 C0 11.34 0 10.68 0 10 C-1.32 9.67 -2.64 9.34 -4 9 C-3.67 8.34 -3.34 7.68 -3 7 C-1.68 7 -0.36 7 1 7 C1.15149298 3.37114676 1.15149298 3.37114676 0 0 Z " fill="#949BD6" transform="translate(229,68)"/>
<path d="M0 0 C1.32 0.33 2.64 0.66 4 1 C4 4.63 4 8.26 4 12 C2.68 11.34 1.36 10.68 0 10 C0 6.7 0 3.4 0 0 Z " fill="#C7CBEF" transform="translate(199,84)"/>
<path d="M0 0 C0 5.28 0 10.56 0 16 C-0.66 16.33 -1.32 16.66 -2 17 C-2.03738281 16.15695313 -2.07476562 15.31390625 -2.11328125 14.4453125 C-2.17902344 13.34960938 -2.24476563 12.25390625 -2.3125 11.125 C-2.37050781 10.03445312 -2.42851562 8.94390625 -2.48828125 7.8203125 C-2.65714844 6.88960938 -2.82601562 5.95890625 -3 5 C-3.99 4.34 -4.98 3.68 -6 3 C-6 2.34 -6 1.68 -6 1 C-1.125 0 -1.125 0 0 0 Z " fill="#2E2F5B" transform="translate(187,79)"/>
<path d="M0 0 C0.66 0 1.32 0 2 0 C2.0270043 1.45823212 2.04639787 2.91660675 2.0625 4.375 C2.07410156 5.18710938 2.08570313 5.99921875 2.09765625 6.8359375 C2 9 2 9 1 11 C-0.65 10.67 -2.3 10.34 -4 10 C-3.52449439 8.51965236 -3.04448784 7.04074979 -2.5625 5.5625 C-2.29566406 4.73878906 -2.02882812 3.91507812 -1.75390625 3.06640625 C-1 1 -1 1 0 0 Z " fill="#16194B" transform="translate(252,85)"/>
<path d="M0 0 C2.31 0.66 4.62 1.32 7 2 C5.8553125 2.7734375 5.8553125 2.7734375 4.6875 3.5625 C1.38424393 6.55847644 0.51374274 8.85712514 -1 13 C-3 10 -3 10 -2.5390625 7.51953125 C-2.23742188 6.62621094 -1.93578125 5.73289062 -1.625 4.8125 C-1.32851563 3.91144531 -1.03203125 3.01039062 -0.7265625 2.08203125 C-0.48679688 1.39496094 -0.24703125 0.70789063 0 0 Z " fill="#2B2E53" transform="translate(61,79)"/>
<path d="M0 0 C2.125 0.375 2.125 0.375 4 1 C3.01 1 2.02 1 1 1 C0.67 2.65 0.34 4.3 0 6 C1.65 6 3.3 6 5 6 C5 6.33 5 6.66 5 7 C3.35 7 1.7 7 0 7 C0 7.66 0 8.32 0 9 C0.66 9.33 1.32 9.66 2 10 C1.01 10 0.02 10 -1 10 C-1 13.96 -1 17.92 -1 22 C-1.33 22 -1.66 22 -2 22 C-2.05790353 18.70840684 -2.09356261 15.41694397 -2.125 12.125 C-2.14175781 11.18785156 -2.15851563 10.25070313 -2.17578125 9.28515625 C-2.18544922 7.94130859 -2.18544922 7.94130859 -2.1953125 6.5703125 C-2.20578613 5.74289551 -2.21625977 4.91547852 -2.22705078 4.06298828 C-2 2 -2 2 0 0 Z " fill="#A1A4CB" transform="translate(181,73)"/>
<path d="M0 0 C0.33 0 0.66 0 1 0 C1.33 2.31 1.66 4.62 2 7 C-0.97 7 -3.94 7 -7 7 C-7 5.02 -7 3.04 -7 1 C-5.02 2.32 -3.04 3.64 -1 5 C-0.67 3.35 -0.34 1.7 0 0 Z " fill="#B6BBE4" transform="translate(146,55)"/>
<path d="M0 0 C0.33 0 0.66 0 1 0 C1.336611 1.77021322 1.66917293 3.54119674 2 5.3125 C2.185625 6.29863281 2.37125 7.28476563 2.5625 8.30078125 C3 11 3 11 3 14 C1.68 13.67 0.36 13.34 -1 13 C-1 11.68 -1 10.36 -1 9 C-1.66 8.67 -2.32 8.34 -3 8 C-2.01 5.36 -1.02 2.72 0 0 Z " fill="#858BCA" transform="translate(233,81)"/>
<path d="M0 0 C0.33 0.66 0.66 1.32 1 2 C0.01 2.495 0.01 2.495 -1 3 C-0.01 3.33 0.98 3.66 2 4 C2 8.62 2 13.24 2 18 C1.67 18 1.34 18 1 18 C1 14.04 1 10.08 1 6 C-0.65 5.67 -2.3 5.34 -4 5 C-4 4.34 -4 3.68 -4 3 C-4.66 2.67 -5.32 2.34 -6 2 C-4.02 1.34 -2.04 0.68 0 0 Z " fill="#858AC5" transform="translate(157,62)"/>
<path d="M0 0 C0.99 0.495 0.99 0.495 2 1 C2.73075648 3.3140622 3.40138258 5.64828869 4 8 C3.34 8 2.68 8 2 8 C1.67 12.29 1.34 16.58 1 21 C0.67 21 0.34 21 0 21 C0 14.07 0 7.14 0 0 Z " fill="#B1B5D9" transform="translate(39,79)"/>
<path d="M0 0 C-0.33 2.64 -0.66 5.28 -1 8 C-3.5 6.75 -3.5 6.75 -6 5 C-6 3.68 -6 2.36 -6 1 C-4 0 -4 0 0 0 Z " fill="#2E3151" transform="translate(205,78)"/>
<path d="M0 0 C0.33 0.66 0.66 1.32 1 2 C1.99 2.33 2.98 2.66 4 3 C3.34 3 2.68 3 2 3 C2 3.99 2 4.98 2 6 C-0.64 6 -3.28 6 -6 6 C-4.6875 4.5 -4.6875 4.5 -3 3 C-2.01 3 -1.02 3 0 3 C0 2.01 0 1.02 0 0 Z " fill="#323334" transform="translate(109,104)"/>
<path d="M0 0 C2.64 0.66 5.28 1.32 8 2 C8 3.65 8 5.3 8 7 C7.01 7 6.02 7 5 7 C5 6.01 5 5.02 5 4 C4.360625 3.896875 3.72125 3.79375 3.0625 3.6875 C2.381875 3.460625 1.70125 3.23375 1 3 C0.67 2.01 0.34 1.02 0 0 Z " fill="#383A3B" transform="translate(125,103)"/>
<path d="M0 0 C0.33 0 0.66 0 1 0 C1 2.97 1 5.94 1 9 C0.01 9 -0.98 9 -2 9 C-2.125 5.625 -2.125 5.625 -2 2 C-1.34 1.34 -0.68 0.68 0 0 Z " fill="#FDFDFE" transform="translate(141,86)"/>
<path d="M0 0 C2.475 0.495 2.475 0.495 5 1 C5 2.32 5 3.64 5 5 C3.35 4.67 1.7 4.34 0 4 C0 2.68 0 1.36 0 0 Z " fill="#EDEEEF" transform="translate(89,99)"/>
<path d="M0 0 C0.33 0 0.66 0 1 0 C1 3.63 1 7.26 1 11 C0.34 10.01 -0.32 9.02 -1 8 C-1.66 8 -2.32 8 -3 8 C-1.125 1.125 -1.125 1.125 0 0 Z " fill="#ABB1E3" transform="translate(81,28)"/>
<path d="M0 0 C1.32 0 2.64 0 4 0 C4 1.98 4 3.96 4 6 C2.68 5.67 1.36 5.34 0 5 C0 3.35 0 1.7 0 0 Z " fill="#C4C8ED" transform="translate(180,90)"/>
<path d="M0 0 C0.33 0 0.66 0 1 0 C1.09945415 6.11090483 1.0712828 11.97403427 0 18 C-0.33 18 -0.66 18 -1 18 C-1.33 15.03 -1.66 12.06 -2 9 C-1.34 9 -0.68 9 0 9 C0 6.03 0 3.06 0 0 Z " fill="#223AB6" transform="translate(12,69)"/>
<path d="M0 0 C1.98 0.495 1.98 0.495 4 1 C4 2.32 4 3.64 4 5 C2.35 5 0.7 5 -1 5 C-0.67 3.35 -0.34 1.7 0 0 Z " fill="#F6F7FB" transform="translate(182,74)"/>
<path d="M0 0 C0.66 0 1.32 0 2 0 C2.33 2.31 2.66 4.62 3 7 C1.35 7 -0.3 7 -2 7 C-1.34 4.69 -0.68 2.38 0 0 Z " fill="#B5B6B7" transform="translate(76,99)"/>
<path d="M0 0 C0.33 0 0.66 0 1 0 C1 1.65 1 3.3 1 5 C0.34 5 -0.32 5 -1 5 C-1 6.65 -1 8.3 -1 10 C-1.99 10 -2.98 10 -4 10 C-3.52449439 8.51965236 -3.04448784 7.04074979 -2.5625 5.5625 C-2.29566406 4.73878906 -2.02882812 3.91507812 -1.75390625 3.06640625 C-1 1 -1 1 0 0 Z " fill="#626683" transform="translate(252,85)"/>
<path d="M0 0 C2.64 0 5.28 0 8 0 C6.8125 1.5 6.8125 1.5 5 3 C2.3125 3.1875 2.3125 3.1875 0 3 C0 2.01 0 1.02 0 0 Z " fill="#B8BEEA" transform="translate(0,90)"/>
<path d="M0 0 C0.33 0 0.66 0 1 0 C1.144375 1.093125 1.28875 2.18625 1.4375 3.3125 C1.88288104 6.93122987 1.88288104 6.93122987 3 10 C1.68 10 0.36 10 -1 10 C-0.67 6.7 -0.34 3.4 0 0 Z " fill="#34363E" transform="translate(111,83)"/>
<path d="M0 0 C1.65 1.32 3.3 2.64 5 4 C4.01 4.495 4.01 4.495 3 5 C2.34 6.32 1.68 7.64 1 9 C0.67 6.03 0.34 3.06 0 0 Z " fill="#4C5274" transform="translate(62,96)"/>
<path d="M0 0 C1.32 0.33 2.64 0.66 4 1 C3.67 1.66 3.34 2.32 3 3 C2.67 3 2.34 3 2 3 C1.67 5.31 1.34 7.62 1 10 C0.67 10 0.34 10 0 10 C0 6.7 0 3.4 0 0 Z " fill="#BABFE5" transform="translate(199,84)"/>
<path d="M0 0 C0 3.10551666 -0.5393715 4.35261084 -2 7 C-2 6.34 -2 5.68 -2 5 C-2.99 4.67 -3.98 4.34 -5 4 C-3 1 -3 1 0 0 Z " fill="#A6ACE0" transform="translate(236,73)"/>
</svg>
